<?xml version="1.0" encoding="utf-8"?>
<!-- Generator: Adobe Illustrator 16.0.4, SVG Export Plug-In . SVG Version: 6.00 Build 0)  -->
<!DOCTYPE svg PUBLIC "-//W3C//DTD SVG 1.1//EN" "http://www.w3.org/Graphics/SVG/1.1/DTD/svg11.dtd">
<svg version="1.1" xmlns="http://www.w3.org/2000/svg" xmlns:xlink="http://www.w3.org/1999/xlink" x="0px" y="0px" width="792px"
	 height="612px" viewBox="0 0 792 612" style="enable-background:new 0 0 792 612;" xml:space="preserve">
<style type="text/css">
<![CDATA[
	.st0{fill:#E04946;}
	.st1{fill:#FFE78C;stroke:#000000;stroke-width:4;stroke-miterlimit:10;}
	.st2{fill:#FFE78C;stroke:#000000;stroke-miterlimit:10;}
	.st3{fill:#FFFFE3;stroke:#000000;stroke-width:4;stroke-miterlimit:10;}
	.st4{opacity:0.5;fill:#9FF5FF;}
	.st5{stroke:#000000;stroke-width:4;stroke-miterlimit:10;}
	.st6{fill:#FFE78C;}
	.st7{fill:#FFFFFF;stroke:#000000;stroke-width:4;stroke-miterlimit:10;}
	.st8{fill:#E04946;stroke:#000000;stroke-width:4;stroke-miterlimit:10;}
	.st9{fill:#FFFC84;stroke:#000000;stroke-width:4;stroke-miterlimit:10;}
	.st10{stroke:#000000;stroke-miterlimit:10;}
]]>
</style>
<g id="Layer_1">
	<path class="st2" d="M576.9,480c0,0,33.3-15.5,41.7-23.5c4.7-4.6-30.7,3.2-30.7,3.2c-10.5,4.8-33.1,7.3-33.1,7.3L576.9,480z"/>
	<path class="st1" d="M598,217.2c0,0,2,4.1,2,4.1c1.3,1.1-22.7-13.2-23.8-21.7c-5-37.6-35.8-36-60.1-40.9c-8-1.6-13.8-3.6-16.3-14.2
		c-2.6-10.8,2.5-22.7,14.1-27.6c10-4.3,24.5,7.2,24.5,7.2s-33,21.8,5.3,18.9c36.3-2.8,46.6,15.4,51.3,27.1
		c7.9,19.5,22,32.2,31.4,43.7c5.9,7.3,34.8,20.7,34.8,20.7l6.5,23.8l-32.4-10.4C635.3,247.9,598,217.3,598,217.2z"/>
	<path class="st1" d="M687.5,250.9c0,0-0.1-11.7-11.7-31.1c-13.6-22.8-6.7-26.8,0.2-43.2c6.4-15.2-1.6-38.5-20.7-37.9
		c-20.1,0.6-31.3,32.4-17,19.6c8.5-7.6,16.9-6.4,18.6,3.4c2,11.5-25.7,26.1-24.2,47c1.1,14.5,18.8,31.9,18.3,33.5L687.5,250.9z"/>
	<path class="st1" d="M711.2,311.8c0.3-3.3,2.2-32.1-10-47.9c0,0-4.7-8.2-12.9-14.9l0.2,0.2l-0.9-0.8c-3.4-2.8-6.9-4.7-11.8-5.9
		c-16.6-4.1-45.7-6.5-45.7-6.5l57.8,89.6L711.2,311.8z"/>
	<path class="st1" d="M680.4,342.9c1.3-42.4,43-47,57.1-43.6c34.5,8.3,32,46.5,22.7,57.6c-10.6,12.7-22.4,9.6-22.4,9.6
		c-8.8-2.6-9.2-14.5-9-15.9c0.2-1.4,0.9,6.7,10,7.4c9.1,0.8,11.3-14.9,6.6-20.6c-4.7-5.7-19.8-7.8-29.8,0.3
		c-9,7.3-13.7,26.9-13.5,31.8L680.4,342.9z"/>
	<path class="st1" d="M626.3,272.9h6.7c0,0-40.9-3.9-58.6-14.8c-17.6-10.9-13.5-33.2-29.1-39.9c0,0-15.6-2-21.6-8.5
		c-5-5.4-4.1-10.6-3.4-13.3c1-3.8,6.2,10.9,17.6,4c0,0,13.6-5.4,21.9,7.1c8.3,12.5,21.5,25.3,48.2,30.5l32.1,16.3L626.3,272.9z"/>
	<path class="st1" d="M687.8,325.7c3.8-18.1,2-56.2-21.6-70.8c-11.9-7.3-34.5-17.9-38.3-19.9c0,0-22-10.5-28.4-19.7
		c-5.4-7.8-0.8-15.7,0.5-17c6.4-6.5,21.5-2,20.5,9.5c-0.6,1.6-1.8,3.3-4.1,5.1c-7.1,5.2,11.6-3.1,13.4-10.2
		c0.7-2.9,1.1-9.6-0.4-11.8c-4.6-7.1-20.2-19-38.9-8.3c-5.5,3.2-10.9,6.4-14.8,18.6l0,0.2c-1,4.3-2.2,9.6-0.1,15.3
		c3.6,9.6,47,56.4,43,56.2l42.3,71.3h19.7C680.5,344.1,686.8,330.6,687.8,325.7z"/>
	<path class="st1" d="M696.9,411.4c-0.1,0.4-0.2,0.7-0.2,0.7l-0.1,0.2c0-0.1,0.2-0.3,0.1-0.2c-13.3,4.9,23.6,6.1,23.6,6.1
		c8.9,5.7,14.5,38.1,8.7,24.1c-1.9-4.5-9.9-10.2-9.9-10.2c-10.2-4.5-27.9,5.1-33.6,11.9c-5.8,6.7-11.6,18.7-24.8,33
		C647.7,491.1,617,488,617,488l1.3-0.2c-0.1,0.1,22.9-35.5,22.9-35.5L696.9,411.4z"/>
	<path class="st1" d="M562.3,472.7c0,0,5.8-5.7,17.5-9.9c5-1.8,11.3-3.2,26.1-4.8l0.4-12.7l-3-11.9c-30.2-0.1-63,24.8-63,24.8
		L562.3,472.7z"/>
	<path class="st6" d="M630.3,412.5c0.9,0.3,30,8.3,30,8.3l19.6-39.4l-22.8-32.1l-27.7,29.6"/>
	<path class="st8" d="M685.6,424.3l11.5-2.2l-10.2,7.5l15.2-3.4l-6,5.9l10.7-0.6c4.4-1.1,8.9-0.5,11.7,0.8c0,0,8.7,5.2,10.6,9.7
		c5.9,14.2,0.2-22.8-11.9-28.8c-6.5-3.2-8.2-4.3-22.8-1.3c-16.9,3.5-2.2,8.1-2.2,8.1L685.6,424.3z"/>
	<path class="st1" d="M647,374.1c-2,18.1,5.6,55.9,0,60.6c-4.5,3.8-25.7,7.3-25.7,7.3l2.6-13.5l-10.7-31.8l0.3-29.4l-0.6,0.6
		c0.1,0,0.2-0.1,0.3-0.1l0.3-0.5c0,0,24.8-44.3,17-66.1c-2.4-6.7-10-21.1-33.4-13.7c0,0-6.3,7.4,3.5,19.2c0,0,1.1,4.4,7.1,5.6
		c5.1,1.1-3.7,8.1-12.5,2.7c-8.8-5.4-9.9-20.3-9.4-27.3c1.5-20.6,51-26.5,66.5,5.8C664.7,319.1,647.7,367.8,647,374.1z"/>
	<path class="st1" d="M634,425.3c37.1-15.2,37.7-42.8,29.7-55.7c-9.3-15-14.9-30.8-13.9-29.6c1.7,2-2.5-5.2,11.2,0
		c13.9,5.3,34.2,1.6,42,28.9c16.4,57.3-61.7,83.4-61.7,83.4L634,425.3z"/>
	<path class="st1" d="M529.4,482.6c18.9,8.8,11.8,3,21.1,9.6c8.3,5.9,51.1,7.8,65.8,3.3c11.9-3.7,22.1-20.3,24.4-38.3
		c1.5-11.8-0.8-25-7.9-32.7c0,0-15-17.6-15.7-19.6c0,0-9.2-18.3,8.3-22.6c9.9-2.4,16,11.5,15.2,15.8c0,0,0.4,4.7-8.8,6.9
		c-4.8,1.1,16.2,3.3,17.3-10.8c0,0,6.3-23-24.5-27.4c-4.4-0.6-8.1-0.2-11.3,1.1l-0.3,0.1c-18.6,7.5-26,25.1-20.7,37.3
		c7.7,17.6,23.7,58.4,2.9,62.3c-19.7,3.7-32.5-18.1-62.3-8C518.4,464.5,525.3,480.7,529.4,482.6z"/>
	<path class="st8" d="M627.9,382c6.9,1.4,13.6,11.3,12.9,15.6c0,0,0.4,4.8-8.8,6.9c-4.8,1.1,16.2,3.3,17.3-10.8
		c0,0,6.3-23-24.5-27.4c-4.4-0.6-8.1-0.2-11.3,1.1l-0.3,0.1c-1.2,0.5-3.2,1.9-3.2,1.9l12.3,0.5l-5.6,4.7l11.1,2.5l-7.7,1.7
		L627.9,382z"/>
	<path class="st8" d="M663.7,361.3c0,0-1.1,6.9,0,8.3c4.1,4.9-2.7-2.4-16.1-19.9c-12.6-16.4-1.3-35.7,18.1-31.7
		c14.2,3,12.2,25.6,8.5,15.9c-7.5-19.4-23.4,2-8.5,6c14.1,3.8,18.8,6.3,18.8,6.3l8.9,8.6l-13.1-0.3l7.3,7.7l-16.5-2.4l3.1,9.8
		L663.7,361.3z"/>
	<path class="st8" d="M754.7,341.8l1.2,4.5l3.3-10l1.7,8.8c0,0,4.7-12.4,4.7-12.3c2.6,7.9,2.3,13.1-5.3,24.3
		c-9.3,13.7-22.4,9.6-22.4,9.6c-8.8-2.6-9.2-14.5-9-15.9c0.2-1.4,0.9,6.7,10,7.4c9.1,0.8,10.1-15.8,7.2-19.9c-0.5-0.7,3,4.9,4.5,9.2
		L754.7,341.8z"/>
	<path class="st8" d="M618.5,287.2c0,0-31-9.9-19.9,16.4c2,4.7,12.6,10.1,17.7,3.7c1.8-2.2-1.7,14.4-21.1,7.7
		c-12.3-4.3-25.2-50,19.4-43.1c1.3,0.2-7,3.9-7,3.9l10.1,1.6l-11.5,5.4L618.5,287.2z"/>
	<path class="st8" d="M537.3,212.3l6.9,4.9c0,0-14.3-1.1-20.3-7.5c-5-5.4-7.7-12.7-1.6-19.4c11-12.1-6.7,12.8,15.8,10.1
		c0,0,5.7-1.6,11.3-0.5c0.4,0.1,4.9,8,4.9,8l-9.2,0.2l4.2,3.1L537.3,212.3z"/>
	<path class="st8" d="M516,115.6c36.8-14.9,45.9,12.4,34.5,15.8c-15,4.5-3.4,4.2-3.4-4.3c0-4.9-8.3-4.7-14.1-0.8
		c-13.5,9-8.2,7.4-12.2,9.3l1.4-3.8l-7.6,0.3l6.2-5.3l-11.6,0.3C509.1,127,510.1,118,516,115.6z"/>
	<path class="st8" d="M583.4,188.7c19.4-23.7,54.9-5.3,46,14.1c-3,6.7-19.4,14.1-12.3,9.8c3.1-1.9,5-8.9,1.4-13.5
		c-4-5.1-13.6-7.9-20.6,3c-1.1,1.8,0.6-2.8,0.6-2.8l-9,3.6l7.5-9.5l-11.8,3.7l4.3-10.1L583.4,188.7z"/>
	<path class="st9" d="M429.7,527.6c0,0-20.5,13.4-25.9,15.8c-2.8,1.2-3.3,1.1-5.6,1.6c-2.2,0.4-11.5-0.3-15,3.3
		c-3.3,3.4-3.1,7.4-0.4,10.6c3,3.6,8.6,3.8,13.1,3.2c6.2-0.9,38.5-18.1,42.8-23.1c2.2-2.6-2.8-13.3-2.8-13.3L429.7,527.6z"/>
	<path class="st1" d="M541.5,498.3l-22.5,7c0,0,8.7,10.4,15.6,8.6c7.5-1.9,11.3-10.4,12.2-8.5c1.5,3.3,2.4,16.2,2.4,16.2
		c1.9,10.2,7.5,8.6,8.8,8.3c5.2-1.2,7.2-21.8,7.1-23.5c-0.3-7.3-7.8-15.6-7.8-15.6L541.5,498.3z"/>
	<path class="st8" d="M548.8,518.2c0.4-4-2.4-12.4-2-11.5c1.5,3.3,2.4,16.2,2.4,16.2c1.9,10.2,7.5,8.6,8.8,8.3
		c5.2-1.2,7.2-21.8,7.1-23.5c-0.3-7.3-7.8-15.6-7.8-15.6s6.3,9.3,6.7,13c0.2,2.4-3.6,8.6-3.6,8.6l-4.5-6l-1,8.4l-3.6-6.2
		C551.3,509.9,548.5,520.8,548.8,518.2z"/>
	<path class="st1" d="M561.5,489.9c-5.3,16.1-29.1,13-31.8,13.6c-2.9,0.7-8.7-0.3-21.3,14.8c-11.6,13.8-23.3,16.2-33.2,18.1
		c0,0-10.1,18.9-13.5,24.1c-4.9,7.5-15.3,20.7-16.1,22.9c-2.8,7.5-7.1,11.8-8.8,13.3c-1.8,1.7-9.2,4.4-14.8-1.7
		c-5-5.5,2.1-11.8,6-14.9c9.7-7.6,28-47.8,32.8-54.7c2-2.9-5.9,10.2-8.5,11.2c-0.7,0.2-0.2-1-0.8-0.6c-0.9,0.5-1.3,2.8-2,3
		c-1,0.3-0.3-3.2-1.2-2.7c-2.3,1.1-3.8,13.6-6.2,13.2c-0.6-0.1-3.4-4-4.3-5.3c-0.7-1.1,0.1,4.2-0.7,5.3c-0.6,1,0-17.2-1.9-20.8
		c-1.3-2.3-7.5,5.2-7.5,5.2c0.4-15,4.8-14.3,4.8-14.3c-5.7-9.1-14.5,0.2-12.2-3.8c4.5-7.9,15-6.6,15-6.6s33.4-12.5,49.3-29.8
		c16-17.5,42.5-15.4,44.9-15.2c11.5,0.9,24.3,9.1,28.7,9.8c3.8,0.6,9-3.6,14.5-1.3c4.5,1.8,21.6,13.7,21.9,18.7
		c0.4,8.6-2.6,7.4-7.7,6.8C579.7,497.5,561.5,489.9,561.5,489.9z"/>
	<path class="st3" d="M560.4,478.6c1.8,2.4,2,4.8,2,6.3c0,1.7-0.4,3.8-0.8,5"/>
	<path class="st8" d="M455.1,569.7c-4.9,7.5-9.1,11.7-9.9,13.9c-2.8,7.5-7.1,11.8-8.8,13.3c-1.8,1.7-9.2,4.4-14.8-1.7
		c-5-5.5,2.1-11.8,6-14.9c9.7-7.6,26-43.2,30.8-50l-14,32l7.9-7.9l-1.2,11.7l6.9-8.3L455.1,569.7z"/>
	<path class="st8" d="M418.1,535.7c0,0-8.6,5.3-14,7.7c-2.8,1.2-3.3,1.1-5.6,1.6c-2.2,0.4-11.5-0.3-15,3.3
		c-3.3,3.4-3.1,7.4-0.4,10.6c3,3.6,8.6,3.8,13.1,3.2c6.2-0.9,22.9-9.5,27.8-13.3l-6.3,1.4l5.4-4.6l-6.4,0.2l6.1-8.5l-10.2,4.9
		L418.1,535.7z"/>
	<path class="st8" d="M572.7,488c1.7,0.3,10.3-1,10.3-1l-8.3-3.5l6.2-2.1c0,0-9.1-8.9-8.3-8.6c4,1.4,21.6,12.6,21.9,17.6
		c0.4,8.6-2.6,7.4-7.7,6.8c-7.1-0.8-24.1-6.3-22.2-6l12.7,0.9L572.7,488z"/>
	<path class="st7" d="M439.3,509.5c0,0-14.4-3-19.1,6.8c-2,4.1,6.4-5.4,12.2,3.8c0,0-4.3-0.7-4.8,14.3c0,0,6.3-7.5,7.5-5.2
		c1.9,3.6,1.3,21.8,1.9,20.8c0.7-1.2,0-6.5,0.7-5.3c0.8,1.3,3.6,5.2,4.3,5.3c2.4,0.4,4-12.2,6.2-13.2c1-0.5,0.2,3,1.2,2.7
		c0.7-0.2,1.1-2.5,2-3c0.6-0.4,0.1,0.9,0.8,0.6c2.6-0.9,7.1-9,8.5-11.2c0,0,2.5-4.9,1-5.5c-0.9-0.4,4.5-6.4,11.9-3.2
		c4.7,2,0.6-7.2-10.4-8.5c-3.8-0.4,10.3-10.6,15.6-20C484.4,478.9,439.3,509.5,439.3,509.5z"/>
	<path class="st1" d="M422.4,430c-3.9,6-3.1,10.6-4.3,23.1c-2.2,23.8,0,23.8,0.7,32.6c0.5,6.7,14.7,27,24.1,28.2
		s36.8-19.8,39.4-28.2c2.6-8.3,0.9-5.9,1.8-16.9c0.1-1.3,4.4-14.5,2.9-37.8c-0.6-9.9-24.9,22.4-28.3,24.4c-4,2.4-12.2,1.8-16.2,1
		C440.5,456,427.8,421.8,422.4,430z"/>
	<path class="st10" d="M438.8,502.1c1.7-0.6,7.5-0.1,7.7,0.8c0.5,1.7-2.9,4.2-3.9,4.2C440.8,507.1,437.8,502.5,438.8,502.1z"/>
	<path class="st10" d="M468.2,481.9c4.5-1.1-10-0.4-12.1,2c-1.7,1.9-9,13.6-5.1,8.5C455.4,486.6,459.6,484,468.2,481.9z"/>
	<path class="st5" d="M438.6,449.5c0.8,1.9-11.6-25.8-15.3-16.7c-2.7,6.6-4.6,7.7-5.1,20.2c-0.1,2.1,5.5-9.6,5.5-9.6l2.1,9.4
		l3.8-6.8L438.6,449.5z"/>
	<path class="st5" d="M484.9,457.8c0.8-1.7,1.4-5.5,1-22.9c-0.2-7.7-19.2,12.9-21.2,15c-0.9,0.9,11.1-1.8,11.1-1.8l2.4,6.3l2.7-6.2
		L484.9,457.8z"/>
	<path class="st8" d="M672.5,184.2c12.6-19.3,1.6-46.1-17.5-45.5c-20.1,0.6-31.3,32.4-17,19.6c8.5-7.6,16.9-6.4,18.6,3.4
		c2,11.5-11.1,14.9-15.9,25.2l12.1-13.2l2.3,3.7l8.4-7.6l-0.1,9.9l7.2-10.9L672.5,184.2z"/>
	<path class="st10" d="M424.2,478.7c-3.2-2,8.1,1.5,9.4,4c1.1,2,5.2,13.8,2.9,8.6C433.7,485.2,431.6,483.4,424.2,478.7z"/>
</g>
</svg>
