<?xml version="1.0" encoding="UTF-8" standalone="no"?>
<!-- Generator: Adobe Illustrator 16.0.4, SVG Export Plug-In . SVG Version: 6.00 Build 0)  -->

<svg
   xmlns:dc="http://purl.org/dc/elements/1.1/"
   xmlns:cc="http://creativecommons.org/ns#"
   xmlns:rdf="http://www.w3.org/1999/02/22-rdf-syntax-ns#"
   xmlns:svg="http://www.w3.org/2000/svg"
   xmlns="http://www.w3.org/2000/svg"
   xmlns:sodipodi="http://sodipodi.sourceforge.net/DTD/sodipodi-0.dtd"
   xmlns:inkscape="http://www.inkscape.org/namespaces/inkscape"
   version="1.1"
   x="0px"
   y="0px"
   width="786.16888"
   height="451.80255"
   viewBox="0 0 786.16888 451.80255"
   xml:space="preserve"
   id="svg3078"
   inkscape:version="0.48.5 r10040"
   sodipodi:docname="fox_horizontal.svg"><metadata
   id="metadata3161"><rdf:RDF><cc:Work
       rdf:about=""><dc:format>image/svg+xml</dc:format><dc:type
         rdf:resource="http://purl.org/dc/dcmitype/StillImage" /><dc:title></dc:title></cc:Work></rdf:RDF></metadata><defs
   id="defs3159" /><sodipodi:namedview
   pagecolor="#ffffff"
   bordercolor="#666666"
   borderopacity="1"
   objecttolerance="10"
   gridtolerance="10"
   guidetolerance="10"
   inkscape:pageopacity="0"
   inkscape:pageshadow="2"
   inkscape:window-width="1600"
   inkscape:window-height="847"
   id="namedview3157"
   showgrid="false"
   inkscape:zoom="0.76367532"
   inkscape:cx="377.82217"
   inkscape:cy="168.31191"
   inkscape:window-x="-8"
   inkscape:window-y="-8"
   inkscape:window-maximized="1"
   inkscape:current-layer="Layer_1"
   inkscape:snap-global="false"
   fit-margin-top="0"
   fit-margin-left="0"
   fit-margin-right="0"
   fit-margin-bottom="0" />
<style
   type="text/css"
   id="style3080">

	.st0{fill:#E04946;}
	.st1{fill:#FFE78C;stroke:#000000;stroke-width:4;stroke-miterlimit:10;}
	.st2{fill:#FFE78C;stroke:#000000;stroke-miterlimit:10;}
	.st3{fill:#FFFFE3;stroke:#000000;stroke-width:4;stroke-miterlimit:10;}
	.st4{opacity:0.5;fill:#9FF5FF;}
	.st5{stroke:#000000;stroke-width:4;stroke-miterlimit:10;}
	.st6{fill:#FFE78C;}
	.st7{fill:#FFFFFF;stroke:#000000;stroke-width:4;stroke-miterlimit:10;}
	.st8{fill:#E04946;stroke:#000000;stroke-width:4;stroke-miterlimit:10;}
	.st9{fill:#FFFC84;stroke:#000000;stroke-width:4;stroke-miterlimit:10;}
	.st10{stroke:#000000;stroke-miterlimit:10;}

</style>
<g
   id="Layer_1"
   transform="matrix(1.9065808,0,0,1.9065808,-104.38411,-556.75336)">
	
	<g
   id="g3173"
   transform="translate(79.364481,48.549583)"><path
     style="fill:#ffe78c;stroke:#000000;stroke-width:4;stroke-miterlimit:10"
     inkscape:connector-curvature="0"
     id="path3099"
     d="m 238.3,400.7 c 0,0 5.8,-5.7 17.5,-9.9 5,-1.8 11.3,-3.2 26.1,-4.8 l 0.4,-12.7 -3,-11.9 c -30.2,-0.1 -63,24.8 -63,24.8 l 22,14.5 z"
     class="st1" /><path
     style="fill:#ffe78c;stroke:#000000;stroke-width:4;stroke-miterlimit:10"
     inkscape:connector-curvature="0"
     id="path3107"
     d="m 310,353.3 c 37.1,-15.2 37.7,-42.8 29.7,-55.7 -9.3,-15 -14.9,-30.8 -13.9,-29.6 1.7,2 -2.5,-5.2 11.2,0 13.9,5.3 34.2,1.6 42,28.9 16.4,57.3 -61.7,83.4 -61.7,83.4 l -7.3,-27 z"
     class="st1" /><path
     style="fill:#e04946;stroke:#000000;stroke-width:4;stroke-miterlimit:10"
     inkscape:connector-curvature="0"
     id="path3113"
     d="m 339.7,289.3 c 0,0 -1.1,6.9 0,8.3 4.1,4.9 -2.7,-2.4 -16.1,-19.9 -12.6,-16.4 -1.3,-35.7 18.1,-31.7 14.2,3 12.2,25.6 8.5,15.9 -7.5,-19.4 -23.4,2 -8.5,6 14.1,3.8 18.8,6.3 18.8,6.3 l 8.9,8.6 -13.1,-0.3 7.3,7.7 -16.5,-2.4 3.1,9.8 -10.5,-8.3 z"
     class="st8" /></g><g
   id="g3400"
   transform="matrix(-0.87371081,0.48644569,-0.48644569,-0.87371081,990.92189,170.42727)"
   inkscape:transform-center-x="-136.18353"
   inkscape:transform-center-y="-267.12923"><path
     style="fill:#ffe78c;stroke:#000000;stroke-width:4;stroke-miterlimit:10"
     inkscape:connector-curvature="0"
     id="path3093"
     d="m 697.67037,98.12222 h 6.7 c 0,0 -40.9,-3.9 -58.6,-14.8 -17.6,-10.9 -13.5,-33.2 -29.1,-39.9 0,0 -15.6,-2 -21.6,-8.5 -5,-5.4 -4.1,-10.6 -3.4,-13.3 1,-3.8 6.2,10.9 17.6,4 0,0 13.6,-5.4 21.9,7.1 8.3,12.5 21.5,25.3 48.2,30.5 l 32.1,16.3 -13.8,18.6 z"
     class="st1" /><path
     style="fill:#e04946;stroke:#000000;stroke-width:4;stroke-miterlimit:10"
     inkscape:connector-curvature="0"
     id="path3119"
     d="m 608.67037,37.52222 6.9,4.9 c 0,0 -14.3,-1.1 -20.3,-7.5 -5,-5.4 -7.7,-12.7 -1.6,-19.4 11,-12.1 -6.7,12.8 15.8,10.1 0,0 5.7,-1.6 11.3,-0.5 0.4,0.1 4.9,8 4.9,8 l -9.2,0.2 4.2,3.1 -12,1.1 z"
     class="st8" /></g><g
   id="g3213"
   transform="matrix(-0.91955327,0.39296538,-0.39296538,-0.91955327,624.68549,442.1824)"><path
     sodipodi:nodetypes="sccccccccccs"
     style="fill:#ffe78c;stroke:#000000;stroke-width:4;stroke-miterlimit:10"
     inkscape:connector-curvature="0"
     id="path3085"
     d="M 256.49672,125.87614 C 245.19206,99.892928 216.4,91.6 192.1,86.7 c -8,-1.6 -13.8,-3.6 -16.3,-14.2 -2.6,-10.8 2.5,-22.7 14.1,-27.6 10,-4.3 24.5,7.2 24.5,7.2 0,0 -33,21.8 5.3,18.9 36.3,-2.8 46.6,15.4 51.3,27.1 7.9,19.5 22,32.2 31.4,43.7 5.9,7.3 34.8,20.7 34.8,20.7 l 6.5,23.8 -32.4,-10.4 c -20.30955,-20.94779 -44.65311,-26.69418 -54.80328,-50.02386 z"
     class="st1" /></g><g
   id="g3188"
   transform="matrix(-0.39304061,0.9195211,-0.9195211,-0.39304061,703.58253,283.83402)"
   inkscape:transform-center-x="-212.65241"
   inkscape:transform-center-y="-188.28963"><path
     sodipodi:nodetypes="ccccccccccsccc"
     style="fill:#ffe78c;stroke:#000000;stroke-width:4;stroke-miterlimit:10"
     inkscape:connector-curvature="0"
     id="path3105"
     d="m 323,302.1 c -2,18.1 5.6,55.9 0,60.6 -4.5,3.8 -25.7,7.3 -25.7,7.3 l 2.6,-13.5 c -3.56667,-10.6 -7.13333,-21.2 -10.7,-31.8 0.1,-11.65185 0.2,-23.30371 0.3,-34.95556 -0.75699,-6.56579 20.12471,-41.71973 17,-60.54444 -2.4,-6.7 -10,-21.1 -33.4,-13.7 0,0 -6.3,7.4 3.5,19.2 0,0 1.1,4.4 7.1,5.6 5.1,1.1 -3.7,8.1 -12.5,2.7 -8.8,-5.4 -9.9,-20.3 -9.4,-27.3 1.5,-20.6 51,-26.5 66.5,5.8 12.4,25.6 -4.6,74.3 -5.3,80.6 z"
     class="st1" /><path
     style="fill:#e04946;stroke:#000000;stroke-width:4;stroke-miterlimit:10"
     inkscape:connector-curvature="0"
     id="path3117"
     d="m 294.5,215.2 c 0,0 -31,-9.9 -19.9,16.4 2,4.7 12.6,10.1 17.7,3.7 1.8,-2.2 -1.7,14.4 -21.1,7.7 -12.3,-4.3 -25.2,-50 19.4,-43.1 1.3,0.2 -7,3.9 -7,3.9 l 10.1,1.6 -11.5,5.4 12.3,4.4 z"
     class="st8" /></g><path
   class="st8"
   d="m 427.29344,479.46015 c -28.27327,27.87242 -47.14617,6.14884 -37.92141,-1.36272 12.12778,-9.90795 1.52956,-5.18271 4.78899,2.66752 1.87897,4.52542 9.46779,1.15796 13.32892,-4.66799 9.01684,-13.48874 4.73553,-9.9787 7.70117,-13.26732 l 0.16419,4.04637 6.90399,-3.19138 -3.6937,7.27231 10.59822,-4.72523 c 0.13072,0.054 2.65831,8.74947 -1.87037,13.22844 z"
   id="path3121"
   inkscape:connector-curvature="0"
   style="fill:#e04946;stroke:#000000;stroke-width:4;stroke-miterlimit:10"
   inkscape:transform-center-x="-13.888889"
   inkscape:transform-center-y="5.5555556" />
	
	
	
	
	
	
	
	
	<g
   id="g3178"
   transform="translate(45.973323,-27.532466)"><path
     sodipodi:nodetypes="acaacccca"
     style="fill:#ffe78c;stroke:#000000;stroke-width:4;stroke-miterlimit:10"
     inkscape:connector-curvature="0"
     id="path3097"
     d="m 381.25371,384.16297 c 11.034,2.50989 20.73703,26.87777 20.73703,26.87777 0,0 -7.33336,-8.45213 -12.44629,-9.50555 -10.06302,-2.07329 -21.33661,1.81901 -29.8963,7.50185 -11.4636,7.61076 -11.6,18.7 -24.8,33 -13,14.1 -43.7,11 -43.7,11 l 1.3,-0.2 c -0.1,0.1 22.9,-35.5 22.9,-35.5 20.63212,-20.16386 41.92355,-38.62925 65.90556,-33.17407 z"
     class="st1" /><path
     style="fill:#e04946;stroke:#000000;stroke-width:4;stroke-miterlimit:10"
     inkscape:connector-curvature="0"
     id="path3103"
     d="m 358.82222,394.89259 11.73148,-1.04259 -10.43148,6.34259 15.2,-3.4 -6,5.9 c 0,0 15.34008,-2.23168 22.4,0.2 4.30281,1.48204 10.83148,8.31111 10.83148,8.31111 0,0 -7.70661,-22.14499 -17.22407,-26.94814 -7.55981,-3.81518 -25.3463,1.70925 -25.3463,1.70925 l 10.99445,3.23889 z"
     class="st8"
     sodipodi:nodetypes="cccccacaccc" /></g>
	
	
	
	
	
	
	
	
	
	<path
   sodipodi:nodetypes="aaacaaaaacca"
   class="st1"
   d="m 275.0417,425.58773 c 18.91485,-7.88267 31.74102,-31.72796 52.22039,-32.43771 14.11497,-0.48918 32.10704,6.73913 37.45324,19.81162 7.36557,18.01024 8.36385,45.51146 -17.68642,55.63071 0,0 35.09672,-11.41885 42.87581,-26.26446 5.17112,-9.86855 2.9602,-23.3301 -1.86609,-33.37179 -4.82911,-10.04756 -15.11345,-16.99343 -24.90781,-22.31737 -11.89566,-6.46614 -25.66226,-10.93952 -39.19856,-10.64576 -17.38509,0.37728 -34.34564,7.68765 -49.70337,15.84386 -11.71743,6.22291 -20.83437,16.43231 -31.25155,24.64846 l 1.95424,16.27574 c 0.12421,-0.0676 20.58644,-3.20436 30.11012,-7.1733 z"
   id="path3095-7-0"
   inkscape:connector-curvature="0"
   style="fill:#ffe78c;stroke:#000000;stroke-width:4;stroke-miterlimit:10" /><g
   id="g3169"
   transform="translate(345.37037,23)"><path
     style="fill:#ffe78c;stroke:#000000;stroke-width:4;stroke-miterlimit:10"
     inkscape:connector-curvature="0"
     id="path3109"
     d="m -74.823799,394.23179 c 18.9,8.8 11.8,3 21.1,9.6 8.3,5.9 42.360752,0.36235 59.252715,-10.4493 10.403392,-6.65866 19.18568,-18.24481 21.126357,-30.44326 1.680405,-10.56246 -6.17757,-20.47925 -9.209457,-30.73581 -1.542525,-5.21821 -3.869615,-13.67163 -4.569615,-15.67163 0,0 -9.1999995,-18.3 8.3,-22.6 9.9,-2.4 16,11.5 15.2,15.8 l -8.8,6.9 c 0,0 16.2,3.3 17.3,-10.8 0,0 6.3,-23 -24.5,-27.4 -4.4,-0.6 -8.1,-0.2 -11.2999995,1.1 0,0 -0.2007552,0.0645 -0.3,0.1 -13.2913266,4.75684 -18.5468376,18.29424 -14.807444,35.33581 4.5961927,20.94627 17.8074435,60.36419 -2.992556,64.26419 -19.7000005,3.7 -32.5000005,-18.1 -62.3000005,-8 -14.5,4.9 -7.6,21.1 -3.5,23 z"
     class="st1"
     sodipodi:nodetypes="ccaaacccccccssccc" /><path
     style="fill:#e04946;stroke:#000000;stroke-width:4;stroke-miterlimit:10"
     inkscape:connector-curvature="0"
     id="path3111"
     d="m 24.020017,294.20708 c 6.9,1.4 13.6,11.3 12.9,15.6 l -8.8,6.9 c 0,0 16.2,3.3 17.3,-10.8 0,0 6.3,-23 -24.5,-27.4 -4.4,-0.6 -8.1,-0.2 -11.3000004,1.1 l -0.3,0.1 c -1.2,0.5 -3.2,1.9 -3.2,1.9 l 12.3000004,0.5 -5.6,4.7 11.1,2.5 -7.7,1.7 z"
     class="st8"
     sodipodi:nodetypes="ccccccccccccc" /></g><path
   sodipodi:nodetypes="scacccccs"
   class="st8"
   d="m 371.12795,459.47346 c -2.09532,1.06315 -21.31197,8.2963 -21.31197,8.2963 0,0 10.97723,-8.89803 14.23682,-14.96173 2.51531,-4.67916 3.56971,-15.5322 3.56971,-15.5322 l 3.37639,12.62497 6.76596,-9.11842 -0.44326,8.83212 9.73745,-4.1041 c 0,0 -1.5079,6.64478 -15.9311,13.96306 z"
   id="path3123-4-9"
   inkscape:connector-curvature="0"
   style="fill:#e04946;stroke:#000000;stroke-width:4;stroke-miterlimit:10"
   inkscape:transform-center-x="1.6549653"
   inkscape:transform-center-y="-5.69437" /><path
   sodipodi:nodetypes="aaacaaaaacca"
   class="st1"
   d="m 258.23613,415.20822 c 18.91485,-7.88267 32.14031,-28.35133 52.22039,-32.43771 14.27455,-2.90493 31.01957,-1.30005 43.18212,6.71705 14.42262,9.50684 25.94268,40.40146 27.50664,43.91938 3.6867,-0.19585 3.40092,-12.33839 3.24794,-18.64518 -0.17748,-7.31681 -1.42023,-14.9376 -4.81237,-21.423 -3.85715,-7.37443 -9.57279,-14.41955 -16.88739,-18.389 -16.50779,-8.95835 -36.83229,-10.66982 -55.56677,-9.3363 -17.34529,1.23465 -34.34563,7.68766 -49.70337,15.84386 -11.71743,6.22292 -20.83437,16.43231 -31.25155,24.64846 l 1.95424,16.27574 c 0.12421,-0.0676 20.58644,-3.20436 30.11012,-7.1733 z"
   id="path3095-7"
   inkscape:connector-curvature="0"
   style="fill:#ffe78c;stroke:#000000;stroke-width:4;stroke-miterlimit:10" /><path
   sodipodi:nodetypes="cccccsaaaaccc"
   class="st1"
   d="m 239.33623,431.60006 c 16.28465,8.76699 53.3365,17.82295 74.01849,-0.68044 10.36929,-9.34761 26.9318,-28.02389 29.92544,-31.10254 0,0 16.2968,-18.1291 26.93191,-21.66385 9.00934,-2.97183 16.16352,5.29059 16.16352,5.29059 0,0 18.68309,3.43415 17.58302,-2.37696 -1.60866,-8.49772 -3.55837,-13.12767 -8.41337,-17.33093 -3.03778,-2.62998 -7.47898,-3.35842 -11.48589,-3.65761 -4.10431,-0.30646 -8.32644,0.54198 -12.19099,1.95777 -26.24998,9.61668 -44.63002,36.76153 -71.80047,43.34246 -23.01,5.57323 -70.86262,-4.81433 -70.86262,-4.81433 l -5.57514,18.89465 c 0.12421,-0.0676 11.28941,9.79537 15.7061,12.14119 z"
   id="path3095"
   inkscape:connector-curvature="0"
   style="fill:#ffe78c;stroke:#000000;stroke-width:4;stroke-miterlimit:10" /><path
   class="st8"
   d="m 400.28097,370.23926 c 17.24089,25.31406 -10.45347,54.15556 -26.54167,40.12916 -5.57709,-4.77347 -8.03334,-22.59724 -5.91844,-14.57059 0.94502,3.51098 7.12115,7.31432 12.5519,5.1633 6.02352,-2.39317 11.42587,-10.80831 2.95248,-20.60687 -1.41511,-1.56443 2.51574,1.36788 2.51574,1.36788 l -0.90582,-9.65088 6.98912,9.88191 -0.20932,-12.36471 8.4702,6.98253 0.0958,-6.33173 z"
   id="path3123"
   inkscape:connector-curvature="0"
   style="fill:#e04946;stroke:#000000;stroke-width:4;stroke-miterlimit:10" /><path
   sodipodi:nodetypes="sscsccccccs"
   class="st8"
   d="m 377.93297,390.18483 c 1.9832,6.01696 5.35594,21.7483 5.8674,26.05251 0.22565,1.89899 -1.33535,17.51111 -1.33535,17.51111 0,0 -5.79217,-14.31009 -8.3994,-18.40693 -3.41298,-5.36297 -2.32343,-5.57048 -10.79682,-15.36904 -1.41511,-1.56443 2.51573,1.36788 2.51573,1.36788 l -1.8879,-7.35933 7.97121,7.59036 -0.20932,-12.36472 8.4702,6.98254 c 0,0 -2.85651,-8.00911 -2.19575,-6.00438 z"
   id="path3123-4"
   inkscape:connector-curvature="0"
   style="fill:#e04946;stroke:#000000;stroke-width:4;stroke-miterlimit:10" />
	
	
	
	
	
	
	
	
	
	
	
	
	
	
	
	
</g>
</svg>