<?xml version="1.0" encoding="UTF-8" standalone="no"?>
<!-- Generator: Adobe Illustrator 16.0.4, SVG Export Plug-In . SVG Version: 6.00 Build 0)  -->

<svg
   xmlns:dc="http://purl.org/dc/elements/1.1/"
   xmlns:cc="http://creativecommons.org/ns#"
   xmlns:rdf="http://www.w3.org/1999/02/22-rdf-syntax-ns#"
   xmlns:svg="http://www.w3.org/2000/svg"
   xmlns="http://www.w3.org/2000/svg"
   xmlns:sodipodi="http://sodipodi.sourceforge.net/DTD/sodipodi-0.dtd"
   xmlns:inkscape="http://www.inkscape.org/namespaces/inkscape"
   version="1.1"
   x="0px"
   y="0px"
   width="786.16888"
   height="451.80255"
   viewBox="0 0 786.16888 451.80255"
   xml:space="preserve"
   id="svg3078"
   inkscape:version="0.48.5 r10040"
   sodipodi:docname="fox_horizontal.svg"><metadata
   id="metadata3161"><rdf:RDF><cc:Work
       rdf:about=""><dc:format>image/svg+xml</dc:format><dc:type
         rdf:resource="http://purl.org/dc/dcmitype/StillImage" /><dc:title /></cc:Work></rdf:RDF></metadata><defs
   id="defs3159" /><sodipodi:namedview
   pagecolor="#ffffff"
   bordercolor="#666666"
   borderopacity="1"
   objecttolerance="10"
   gridtolerance="10"
   guidetolerance="10"
   inkscape:pageopacity="0"
   inkscape:pageshadow="2"
   inkscape:window-width="1600"
   inkscape:window-height="847"
   id="namedview3157"
   showgrid="false"
   inkscape:zoom="1.08"
   inkscape:cx="575.57494"
   inkscape:cy="168.31191"
   inkscape:window-x="-8"
   inkscape:window-y="-8"
   inkscape:window-maximized="1"
   inkscape:current-layer="Layer_1"
   inkscape:snap-global="false"
   fit-margin-top="0"
   fit-margin-left="0"
   fit-margin-right="0"
   fit-margin-bottom="0" />
<style
   type="text/css"
   id="style3080">

	.st0{fill:#E04946;}
	.st1{fill:#FFE78C;stroke:#000000;stroke-width:4;stroke-miterlimit:10;}
	.st2{fill:#FFE78C;stroke:#000000;stroke-miterlimit:10;}
	.st3{fill:#FFFFE3;stroke:#000000;stroke-width:4;stroke-miterlimit:10;}
	.st4{opacity:0.5;fill:#9FF5FF;}
	.st5{stroke:#000000;stroke-width:4;stroke-miterlimit:10;}
	.st6{fill:#FFE78C;}
	.st7{fill:#FFFFFF;stroke:#000000;stroke-width:4;stroke-miterlimit:10;}
	.st8{fill:#E04946;stroke:#000000;stroke-width:4;stroke-miterlimit:10;}
	.st9{fill:#FFFC84;stroke:#000000;stroke-width:4;stroke-miterlimit:10;}
	.st10{stroke:#000000;stroke-miterlimit:10;}

</style>
<g
   id="Layer_1"
   transform="matrix(1.9065808,0,0,1.9065808,-104.38411,-556.75336)">
	
	<g
   id="g3173"
   transform="translate(79.364481,48.549583)"><path
     style="fill:#ffe78c;stroke:#000000;stroke-width:4;stroke-miterlimit:10"
     inkscape:connector-curvature="0"
     id="path3099"
     d="m 238.3,400.7 c 0,0 5.8,-5.7 17.5,-9.9 5,-1.8 11.3,-3.2 26.1,-4.8 l 0.4,-12.7 -3,-11.9 c -30.2,-0.1 -63,24.8 -63,24.8 l 22,14.5 z"
     class="st1" /><path
     style="fill:#ffe78c;stroke:#000000;stroke-width:4;stroke-miterlimit:10"
     inkscape:connector-curvature="0"
     id="path3107"
     d="m 310,353.3 c 37.1,-15.2 37.7,-42.8 29.7,-55.7 -9.3,-15 -14.9,-30.8 -13.9,-29.6 1.7,2 -2.5,-5.2 11.2,0 13.9,5.3 34.2,1.6 42,28.9 16.4,57.3 -61.7,83.4 -61.7,83.4 l -7.3,-27 z"
     class="st1" /><path
     style="fill:#e04946;stroke:#000000;stroke-width:4;stroke-miterlimit:10"
     inkscape:connector-curvature="0"
     id="path3113"
     d="m 339.7,289.3 c 0,0 -1.1,6.9 0,8.3 4.1,4.9 -2.7,-2.4 -16.1,-19.9 -12.6,-16.4 -1.3,-35.7 18.1,-31.7 14.2,3 12.2,25.6 8.5,15.9 -7.5,-19.4 -23.4,2 -8.5,6 14.1,3.8 18.8,6.3 18.8,6.3 l 8.9,8.6 -13.1,-0.3 7.3,7.7 -16.5,-2.4 3.1,9.8 -10.5,-8.3 z"
     class="st8" /></g><g
   id="g3400"
   transform="matrix(-0.87371081,0.48644569,-0.48644569,-0.87371081,990.92189,170.42727)"
   inkscape:transform-center-x="-136.18353"
   inkscape:transform-center-y="-267.12923"><path
     style="fill:#ffe78c;stroke:#000000;stroke-width:4;stroke-miterlimit:10"
     inkscape:connector-curvature="0"
     id="path3093"
     d="m 697.67037,98.12222 h 6.7 c 0,0 -40.9,-3.9 -58.6,-14.8 -17.6,-10.9 -13.5,-33.2 -29.1,-39.9 0,0 -15.6,-2 -21.6,-8.5 -5,-5.4 -4.1,-10.6 -3.4,-13.3 1,-3.8 6.2,10.9 17.6,4 0,0 13.6,-5.4 21.9,7.1 8.3,12.5 21.5,25.3 48.2,30.5 l 32.1,16.3 -13.8,18.6 z"
     class="st1" /><path
     style="fill:#e04946;stroke:#000000;stroke-width:4;stroke-miterlimit:10"
     inkscape:connector-curvature="0"
     id="path3119"
     d="m 608.67037,37.52222 6.9,4.9 c 0,0 -14.3,-1.1 -20.3,-7.5 -5,-5.4 -7.7,-12.7 -1.6,-19.4 11,-12.1 -6.7,12.8 15.8,10.1 0,0 5.7,-1.6 11.3,-0.5 0.4,0.1 4.9,8 4.9,8 l -9.2,0.2 4.2,3.1 -12,1.1 z"
     class="st8" /></g><g
   id="g3213"
   transform="matrix(-0.91955327,0.39296538,-0.39296538,-0.91955327,624.68549,442.1824)"><path
     sodipodi:nodetypes="sccccccccccs"
     style="fill:#ffe78c;stroke:#000000;stroke-width:4;stroke-miterlimit:10"
     inkscape:connector-curvature="0"
     id="path3085"
     d="M 256.49672,125.87614 C 245.19206,99.892928 216.4,91.6 192.1,86.7 c -8,-1.6 -13.8,-3.6 -16.3,-14.2 -2.6,-10.8 2.5,-22.7 14.1,-27.6 10,-4.3 24.5,7.2 24.5,7.2 0,0 -33,21.8 5.3,18.9 36.3,-2.8 46.6,15.4 51.3,27.1 7.9,19.5 22,32.2 31.4,43.7 5.9,7.3 34.8,20.7 34.8,20.7 l 6.5,23.8 -32.4,-10.4 c -20.30955,-20.94779 -44.65311,-26.69418 -54.80328,-50.02386 z"
     class="st1" /></g>
	
	
	
	
	
	
	
	
	<g
   id="g3178"
   transform="translate(45.973323,-27.532466)"><path
     sodipodi:nodetypes="acaacccca"
     style="fill:#ffe78c;stroke:#000000;stroke-width:4;stroke-miterlimit:10"
     inkscape:connector-curvature="0"
     id="path3097"
     d="m 381.25371,384.16297 c 11.034,2.50989 20.73703,26.87777 20.73703,26.87777 0,0 -7.33336,-8.45213 -12.44629,-9.50555 -10.06302,-2.07329 -21.33661,1.81901 -29.8963,7.50185 -11.4636,7.61076 -11.6,18.7 -24.8,33 -13,14.1 -43.7,11 -43.7,11 l 1.3,-0.2 c -0.1,0.1 22.9,-35.5 22.9,-35.5 20.63212,-20.16386 41.92355,-38.62925 65.90556,-33.17407 z"
     class="st1" /><path
     style="fill:#e04946;stroke:#000000;stroke-width:4;stroke-miterlimit:10"
     inkscape:connector-curvature="0"
     id="path3103"
     d="m 358.82222,394.89259 11.73148,-1.04259 -10.43148,6.34259 15.2,-3.4 -6,5.9 c 0,0 15.34008,-2.23168 22.4,0.2 4.30281,1.48204 10.83148,8.31111 10.83148,8.31111 0,0 -7.70661,-22.14499 -17.22407,-26.94814 -7.55981,-3.81518 -25.3463,1.70925 -25.3463,1.70925 l 10.99445,3.23889 z"
     class="st8"
     sodipodi:nodetypes="cccccacaccc" /></g>
	
	
	
	
	
	
	
	
	
	<path
   sodipodi:nodetypes="aascaaaaacca"
   class="st1"
   d="m 275.0417,425.58773 c 18.91485,-7.88267 31.74102,-31.72796 52.22039,-32.43771 14.11497,-0.48918 31.6552,6.93317 37.45324,19.81162 13.36205,29.67941 -7.04088,49.27773 -7.04088,49.27773 0,0 26.39018,-8.71477 32.23027,-19.91148 5.15243,-9.87832 2.9602,-23.3301 -1.86609,-33.37179 -4.82911,-10.04756 -15.11345,-16.99343 -24.90781,-22.31737 -11.89566,-6.46614 -25.66226,-10.93952 -39.19856,-10.64576 -17.38509,0.37728 -34.34564,7.68765 -49.70337,15.84386 -11.71743,6.22291 -20.83437,16.43231 -31.25155,24.64846 l 1.95424,16.27574 c 0.12421,-0.0676 20.58644,-3.20436 30.11012,-7.1733 z"
   id="path3095-7-0"
   inkscape:connector-curvature="0"
   style="fill:#ffe78c;stroke:#000000;stroke-width:4;stroke-miterlimit:10" /><path
   class="st1"
   d="m 298.84309,462.10177 c -15.85725,-8.95308 -53.60226,-16.82165 -55.72298,-23.81826 -1.7255,-5.6314 3.38864,-26.50089 3.38864,-26.50089 l 11.39163,7.6968 c 11.14877,0.8866 22.29753,1.77321 33.4463,2.65982 10.67482,4.6716 21.34965,9.3432 32.02447,14.01481 6.33491,1.88455 30.45234,34.90264 48.9902,39.42828 7.10409,0.42652 23.3323,-0.90205 25.72499,-25.32735 0,0 -4.3283,-8.70148 -19.03044,-4.32805 0,0 -4.47824,-0.71791 -7.93991,4.32757 -3.01598,4.25721 -5.99387,-6.58586 2.4303,-12.55523 8.42417,-5.96936 22.55738,-1.12453 28.79751,2.08651 18.35257,9.47592 4.32224,57.31116 -31.47043,58.86852 -28.41344,1.34022 -66.51243,-33.43271 -72.03028,-36.55253 z"
   id="path3105"
   inkscape:connector-curvature="0"
   style="fill:#ffe78c;stroke:#000000;stroke-width:4;stroke-miterlimit:10"
   sodipodi:nodetypes="ccccccccccsccc" /><path
   class="st8"
   d="m 427.29344,479.46015 c -28.27327,27.87242 -47.14617,6.14884 -37.92141,-1.36272 12.12778,-9.90795 1.52956,-5.18271 4.78899,2.66752 1.87897,4.52542 9.46779,1.15796 13.32892,-4.66799 9.01684,-13.48874 4.73553,-9.9787 7.70117,-13.26732 l 0.16419,4.04637 6.90399,-3.19138 -3.6937,7.27231 10.59822,-4.72523 c 0.13072,0.054 2.65831,8.74947 -1.87037,13.22844 z"
   id="path3121"
   inkscape:connector-curvature="0"
   style="fill:#e04946;stroke:#000000;stroke-width:4;stroke-miterlimit:10"
   inkscape:transform-center-x="-13.888889"
   inkscape:transform-center-y="5.5555556" /><path
   sodipodi:nodetypes="scacccccs"
   class="st8"
   d="m 370.95624,456.72622 c -2.09532,1.06315 -18.56473,9.15481 -18.56473,9.15481 0,0 8.79034,-9.88806 11.48958,-15.82024 2.20017,-4.83535 3.56971,-15.5322 3.56971,-15.5322 l 3.37639,12.62497 6.76596,-9.11842 -0.44326,8.83212 9.73745,-4.1041 c 0,0 -1.5079,6.64478 -15.9311,13.96306 z"
   id="path3123-4-9"
   inkscape:connector-curvature="0"
   style="fill:#e04946;stroke:#000000;stroke-width:4;stroke-miterlimit:10"
   inkscape:transform-center-x="1.6549653"
   inkscape:transform-center-y="-5.69437" /><path
   class="st8"
   d="m 389.95113,470.05064 c 0,0 21.28752,-24.61405 -7.25864,-24.74433 -5.10783,-0.008 -10.35905,14.82127 -10.35905,14.82127 0,0 -12.57293,-7.22297 1.21285,-22.42831 8.78834,-9.62003 55.88068,-3.5199 32.00637,34.77876 -0.69486,1.11677 -0.83485,-7.9695 -0.83485,-7.9695 l -5.44094,8.6583 -0.44545,-12.69692 z"
   id="path3117"
   inkscape:connector-curvature="0"
   style="fill:#e04946;stroke:#000000;stroke-width:4;stroke-miterlimit:10"
   sodipodi:nodetypes="ccccccccc" /><g
   id="g3169"
   transform="translate(345.37037,23)"><path
     style="fill:#ffe78c;stroke:#000000;stroke-width:4;stroke-miterlimit:10"
     inkscape:connector-curvature="0"
     id="path3109"
     d="m -74.823799,394.23179 c 18.9,8.8 11.8,3 21.1,9.6 8.3,5.9 42.360752,0.36235 59.252715,-10.4493 10.403392,-6.65866 19.18568,-18.24481 21.126357,-30.44326 1.680405,-10.56246 -6.17757,-20.47925 -9.209457,-30.73581 -1.542525,-5.21821 -3.869615,-13.67163 -4.569615,-15.67163 0,0 -9.1999995,-18.3 8.3,-22.6 9.9,-2.4 16,11.5 15.2,15.8 l -8.8,6.9 c 0,0 16.2,3.3 17.3,-10.8 0,0 6.3,-23 -24.5,-27.4 -4.4,-0.6 -8.1,-0.2 -11.2999995,1.1 0,0 -0.2007552,0.0645 -0.3,0.1 -13.2913266,4.75684 -18.5468376,18.29424 -14.807444,35.33581 4.5961927,20.94627 17.8074435,60.36419 -2.992556,64.26419 -19.7000005,3.7 -32.5000005,-18.1 -62.3000005,-8 -14.5,4.9 -7.6,21.1 -3.5,23 z"
     class="st1"
     sodipodi:nodetypes="ccaaacccccccssccc" /><path
     style="fill:#e04946;stroke:#000000;stroke-width:4;stroke-miterlimit:10"
     inkscape:connector-curvature="0"
     id="path3111"
     d="m 24.020017,294.20708 c 6.9,1.4 13.6,11.3 12.9,15.6 l -8.8,6.9 c 0,0 16.2,3.3 17.3,-10.8 0,0 6.3,-23 -24.5,-27.4 -4.4,-0.6 -8.1,-0.2 -11.3000004,1.1 l -0.3,0.1 c -1.2,0.5 -3.2,1.9 -3.2,1.9 l 12.3000004,0.5 -5.6,4.7 11.1,2.5 -7.7,1.7 z"
     class="st8"
     sodipodi:nodetypes="ccccccccccccc" /></g><path
   sodipodi:nodetypes="aaacaaaaacca"
   class="st1"
   d="m 258.23613,415.20822 c 18.91485,-7.88267 32.14031,-28.35133 52.22039,-32.43771 14.27455,-2.90493 30.80864,-0.9705 43.18212,6.71705 13.36316,8.30243 27.16324,38.59661 27.16324,38.59661 0,0 1.72801,-8.96048 1.70262,-13.49411 -0.0401,-7.15038 0.12065,-14.78123 -2.92365,-21.2513 -3.54317,-7.53033 -9.57279,-14.41955 -16.88739,-18.389 -16.50779,-8.95835 -36.83229,-10.66982 -55.56677,-9.3363 -17.34529,1.23465 -34.34563,7.68766 -49.70337,15.84386 -11.71743,6.22292 -20.83437,16.43231 -31.25155,24.64846 l 1.95424,16.27574 c 0.12421,-0.0676 20.58644,-3.20436 30.11012,-7.1733 z"
   id="path3095-7"
   inkscape:connector-curvature="0"
   style="fill:#ffe78c;stroke:#000000;stroke-width:4;stroke-miterlimit:10" /><path
   sodipodi:nodetypes="cccccsaaaaccc"
   class="st1"
   d="m 239.33623,431.60006 c 16.28465,8.76699 53.3365,17.82295 74.01849,-0.68044 10.36929,-9.34761 26.9318,-28.02389 29.92544,-31.10254 0,0 16.2968,-18.1291 26.93191,-21.66385 9.00934,-2.97183 16.16352,5.29059 16.16352,5.29059 0,0 18.68309,3.43415 17.58302,-2.37696 -1.60866,-8.49772 -3.55837,-13.12767 -8.41337,-17.33093 -3.03778,-2.62998 -7.47898,-3.35842 -11.48589,-3.65761 -4.10431,-0.30646 -8.32644,0.54198 -12.19099,1.95777 -26.24998,9.61668 -44.63002,36.76153 -71.80047,43.34246 -23.01,5.57323 -70.86262,-4.81433 -70.86262,-4.81433 l -5.57514,18.89465 c 0.12421,-0.0676 11.28941,9.79537 15.7061,12.14119 z"
   id="path3095"
   inkscape:connector-curvature="0"
   style="fill:#ffe78c;stroke:#000000;stroke-width:4;stroke-miterlimit:10" /><path
   class="st8"
   d="m 400.28097,370.23926 c 17.24089,25.31406 -10.45347,54.15556 -26.54167,40.12916 -5.57709,-4.77347 -8.03334,-22.59724 -5.91844,-14.57059 0.94502,3.51098 7.12115,7.31432 12.5519,5.1633 6.02352,-2.39317 11.42587,-10.80831 2.95248,-20.60687 -1.41511,-1.56443 2.51574,1.36788 2.51574,1.36788 l -0.90582,-9.65088 6.98912,9.88191 -0.20932,-12.36471 8.4702,6.98253 0.0958,-6.33173 z"
   id="path3123"
   inkscape:connector-curvature="0"
   style="fill:#e04946;stroke:#000000;stroke-width:4;stroke-miterlimit:10" /><path
   sodipodi:nodetypes="sscsccccccs"
   class="st8"
   d="m 377.93297,390.18483 c 1.9832,6.01696 5.35594,21.7483 5.8674,26.05251 0.22565,1.89899 -1.33535,17.51111 -1.33535,17.51111 0,0 -5.79217,-14.31009 -8.3994,-18.40693 -3.41298,-5.36297 -2.32343,-5.57048 -10.79682,-15.36904 -1.41511,-1.56443 2.51573,1.36788 2.51573,1.36788 l -1.8879,-7.35933 7.97121,7.59036 -0.20932,-12.36472 8.4702,6.98254 c 0,0 -2.85651,-8.00911 -2.19575,-6.00438 z"
   id="path3123-4"
   inkscape:connector-curvature="0"
   style="fill:#e04946;stroke:#000000;stroke-width:4;stroke-miterlimit:10" />
	<path
   class="st9"
   d="m 105.7,455.6 c 0,0 -20.5,13.4 -25.9,15.8 -2.8,1.2 -3.3,1.1 -5.6,1.6 -2.2,0.4 -11.5,-0.3 -15,3.3 -3.3,3.4 -3.1,7.4 -0.4,10.6 3,3.6 8.6,3.8 13.1,3.2 6.2,-0.9 38.5,-18.1 42.8,-23.1 2.2,-2.6 -2.8,-13.3 -2.8,-13.3 l -6.2,1.9 z"
   id="path3125"
   inkscape:connector-curvature="0"
   style="fill:#fffc84;stroke:#000000;stroke-width:4;stroke-miterlimit:10" />
	<path
   class="st1"
   d="m 217.5,426.3 -22.5,7 c 0,0 8.7,10.4 15.6,8.6 7.5,-1.9 11.3,-10.4 12.2,-8.5 1.5,3.3 2.4,16.2 2.4,16.2 1.9,10.2 7.5,8.6 8.8,8.3 5.2,-1.2 7.2,-21.8 7.1,-23.5 -0.3,-7.3 -7.8,-15.6 -7.8,-15.6 l -15.8,7.5 z"
   id="path3127"
   inkscape:connector-curvature="0"
   style="fill:#ffe78c;stroke:#000000;stroke-width:4;stroke-miterlimit:10" />
	<path
   class="st8"
   d="m 228.23405,445.16979 c 0.4,-4 -5.83405,-11.36979 -5.43405,-10.46979 1.5,3.3 2.2283,16.88681 2.2283,16.88681 1.9,10.2 7.6717,7.91319 8.9717,7.61319 5.2,-1.2 7.2,-21.8 7.1,-23.5 -0.3,-7.3 -7.8,-15.6 -7.8,-15.6 0,0 6.3,9.3 6.7,13 0.2,2.4 -3.6,8.6 -3.6,8.6 l -4.5,-6 -1,8.4 -3.6,-6.2 c 0,0 0.63405,9.86979 0.93405,7.26979 z"
   id="path3129"
   inkscape:connector-curvature="0"
   style="fill:#e04946;stroke:#000000;stroke-width:4;stroke-miterlimit:10"
   sodipodi:nodetypes="cccscccccccc" />
	<path
   class="st1"
   d="m 237.5,417.9 c -5.3,16.1 -29.1,13 -31.8,13.6 -2.9,0.7 -8.7,-0.3 -21.3,14.8 -11.6,13.8 -23.3,16.2 -33.2,18.1 0,0 -10.1,18.9 -13.5,24.1 -4.9,7.5 -15.3,20.7 -16.1,22.9 -2.8,7.5 -7.1,11.8 -8.8,13.3 -1.8,1.7 -9.2,4.4 -14.8,-1.7 -5,-5.5 2.1,-11.8 6,-14.9 9.7,-7.6 28,-47.8 32.8,-54.7 2,-2.9 -5.9,10.2 -8.5,11.2 -0.7,0.2 -0.2,-1 -0.8,-0.6 -0.9,0.5 -1.3,2.8 -2,3 -1,0.3 -0.3,-3.2 -1.2,-2.7 -2.3,1.1 -3.8,13.6 -6.2,13.2 -0.6,-0.1 -3.4,-4 -4.3,-5.3 -0.7,-1.1 -1.37314,0.59899 -3.15523,2.68109 C 108.73531,472.60744 113.1,460.3 111.2,456.7 c -1.3,-2.3 -7.5,5.2 -7.5,5.2 0.4,-15 4.8,-14.3 4.8,-14.3 -5.7,-9.1 -14.5,0.2 -12.2,-3.8 4.5,-7.9 15,-6.6 15,-6.6 0,0 33.4,-12.5 49.3,-29.8 16,-17.5 42.5,-15.4 44.9,-15.2 11.5,0.9 24.3,9.1 28.7,9.8 3.8,0.6 9,-3.6 14.5,-1.3 4.5,1.8 21.6,13.7 21.9,18.7 0.4,8.6 -2.6,7.4 -7.7,6.8 -7.2,-0.7 -25.4,-8.3 -25.4,-8.3 z"
   id="path3131"
   inkscape:connector-curvature="0"
   style="fill:#ffe78c;stroke:#000000;stroke-width:4;stroke-miterlimit:10"
   sodipodi:nodetypes="ccccccccccccccscccccccccccccc" /><path
   class="st8"
   d="m 248.83384,415.75504 c 1.70788,0.2513 10.26722,-1.29395 10.26722,-1.29395 l -8.39664,-3.26137 6.13746,-2.27633 c 0,0 -4.721,-4.93259 -3.91276,-4.65558 4.03838,1.28511 17.32164,8.27385 17.7644,13.26324 0.64562,8.58505 -2.38745,7.47128 -7.50252,7.01728 -7.11995,-0.59676 -18.71464,-3.75684 -16.80683,-3.51129 l 7.16497,-1.31516 -4.71529,-3.96687 z"
   id="path3139"
   inkscape:connector-curvature="0"
   style="fill:#e04946;stroke:#000000;stroke-width:4;stroke-miterlimit:10"
   sodipodi:nodetypes="ccccccccccc" />
	<path
   class="st3"
   d="m 236.4,406.6 c 1.8,2.4 2,4.8 2,6.3 0,1.7 -0.4,3.8 -0.8,5"
   id="path3133"
   inkscape:connector-curvature="0"
   style="fill:#ffffe3;stroke:#000000;stroke-width:4;stroke-miterlimit:10" />
	<path
   class="st8"
   d="m 131.1,497.7 c -4.9,7.5 -9.1,11.7 -9.9,13.9 -2.8,7.5 -7.1,11.8 -8.8,13.3 -1.8,1.7 -9.2,4.4 -14.8,-1.7 -5,-5.5 2.1,-11.8 6,-14.9 9.7,-7.6 26,-43.2 30.8,-50 l -14,32 7.9,-7.9 -1.2,11.7 6.9,-8.3 -2.9,11.9 z"
   id="path3135"
   inkscape:connector-curvature="0"
   style="fill:#e04946;stroke:#000000;stroke-width:4;stroke-miterlimit:10" />
	<path
   class="st8"
   d="m 94.1,463.7 c 0,0 -8.6,5.3 -14,7.7 -2.8,1.2 -3.3,1.1 -5.6,1.6 -2.2,0.4 -11.5,-0.3 -15,3.3 -3.3,3.4 -3.1,7.4 -0.4,10.6 3,3.6 8.6,3.8 13.1,3.2 6.2,-0.9 22.9,-9.5 27.8,-13.3 l -6.3,1.4 5.4,-4.6 -6.4,0.2 6.1,-8.5 -10.2,4.9 5.5,-6.5 z"
   id="path3137"
   inkscape:connector-curvature="0"
   style="fill:#e04946;stroke:#000000;stroke-width:4;stroke-miterlimit:10" />
	
	<path
   class="st7"
   d="m 115.3,437.5 c 0,0 -14.4,-3 -19.1,6.8 -2,4.1 6.4,-5.4 12.2,3.8 0,0 -4.3,-0.7 -4.8,14.3 0,0 6.3,-7.5 7.5,-5.2 1.9,3.6 -0.5005,18.36268 0.0995,17.36268 0.7,-1.2 1.8005,-3.06268 2.5005,-1.86268 0.8,1.3 3.6,5.2 4.3,5.3 2.4,0.4 4,-12.2 6.2,-13.2 1,-0.5 0.2,3 1.2,2.7 0.7,-0.2 1.1,-2.5 2,-3 0.6,-0.4 0.1,0.9 0.8,0.6 2.6,-0.9 7.1,-9 8.5,-11.2 0,0 2.5,-4.9 1,-5.5 -0.9,-0.4 4.5,-6.4 11.9,-3.2 4.7,2 0.6,-7.2 -10.4,-8.5 -3.8,-0.4 10.3,-10.6 15.6,-20 5.6,-9.8 -39.5,20.8 -39.5,20.8 z"
   id="path3141"
   inkscape:connector-curvature="0"
   style="fill:#ffffff;stroke:#000000;stroke-width:4;stroke-miterlimit:10"
   sodipodi:nodetypes="cccccccccccccccccc" />
	<path
   class="st1"
   d="m 97.713496,375.55503 c -3.539727,5.44574 -2.813627,9.62081 -3.902777,20.9661 -1.996772,21.60144 0,21.60144 0.63534,29.58852 0.45381,6.08108 13.342071,24.50583 21.873731,25.59498 8.53166,1.08915 33.40054,-17.97094 35.76036,-25.59498 2.35982,-7.53327 0.81686,-5.35498 1.63373,-15.33883 0.0908,-1.17991 3.99354,-13.16054 2.6321,-34.30817 -0.54457,-8.98547 -22.59982,20.33077 -25.68574,22.14601 -3.63049,2.1783 -11.07301,1.63373 -14.7035,0.90763 -1.81525,-0.36305 -13.34206,-31.40377 -18.243244,-23.96126 z"
   id="path3143"
   inkscape:connector-curvature="0"
   style="fill:#ffe78c;stroke:#000000;stroke-width:3.63049364;stroke-miterlimit:10" />
	<path
   class="st10"
   d="m 112.59853,440.99468 c 1.54296,-0.54458 6.80718,-0.0908 6.9887,0.7261 0.45382,1.54295 -2.6321,3.81201 -3.53973,3.81201 -1.63372,0 -4.35659,-4.17506 -3.44897,-4.53811 z"
   id="path3145"
   inkscape:connector-curvature="0"
   style="stroke:#000000;stroke-width:0.90762341;stroke-miterlimit:10" />
	<path
   class="st10"
   d="m 139.28266,422.66068 c 4.08431,-0.99838 -9.07623,-0.36305 -10.98224,1.81525 -1.54296,1.72448 -8.16861,12.34368 -4.62888,7.7148 3.99354,-5.26422 7.80556,-7.62404 15.61112,-9.53005 z"
   id="path3147"
   inkscape:connector-curvature="0"
   style="stroke:#000000;stroke-width:0.90762341;stroke-miterlimit:10" />
	<path
   class="st5"
   d="m 112.41701,393.25368 c 0.7261,1.72449 -10.52843,-23.41668 -13.886654,-15.15731 -2.45058,5.99032 -4.175067,6.9887 -4.628877,18.334 -0.0908,1.90601 4.991927,-8.71319 4.991927,-8.71319 l 1.906024,8.53166 3.44897,-6.17184 8.16861,3.17668 z"
   id="path3149"
   inkscape:connector-curvature="0"
   style="stroke:#000000;stroke-width:3.63049364;stroke-miterlimit:10" />
	<path
   class="st5"
   d="m 154.43997,400.78696 c 0.7261,-1.54296 1.27068,-4.99193 0.90763,-20.78458 -0.18153,-6.9887 -17.42637,11.70834 -19.24162,13.61435 -0.81686,0.81687 10.07462,-1.63372 10.07462,-1.63372 l 2.1783,5.71803 2.45058,-5.62727 3.63049,8.71319 z"
   id="path3151"
   inkscape:connector-curvature="0"
   style="stroke:#000000;stroke-width:3.63049364;stroke-miterlimit:10" />
	
	<path
   class="st10"
   d="m 99.347226,419.75629 c -2.9044,-1.81525 7.351754,1.36143 8.531664,3.63049 0.99839,1.81525 4.71964,12.52521 2.63211,7.80556 -2.54134,-5.5365 -4.44735,-7.17022 -11.163774,-11.43605 z"
   id="path3155"
   inkscape:connector-curvature="0"
   style="stroke:#000000;stroke-width:0.90762341;stroke-miterlimit:10" />
<path
   style="fill:#ffe78c;fill-opacity:1;stroke-width:42.74599838;stroke-miterlimit:4;stroke-dasharray:none"
   d="m 98.848093,469.37159 c 0.633971,-0.76389 1.691647,-1.38889 2.350387,-1.38889 0.65874,0 2.5193,-1.66865 4.13458,-3.7081 3.31857,-4.19004 4.62614,-4.07259 4.62614,0.41552 0,3.88588 -3.0279,6.07036 -8.41413,6.07036 -3.316929,0 -3.690143,-0.1922 -2.696977,-1.38889 z"
   id="path3163"
   inkscape:connector-curvature="0" /></g>
</svg>