<?xml version="1.0" encoding="UTF-8" standalone="no"?>
<!-- Generator: Adobe Illustrator 16.0.4, SVG Export Plug-In . SVG Version: 6.00 Build 0)  -->

<svg
   xmlns:dc="http://purl.org/dc/elements/1.1/"
   xmlns:cc="http://creativecommons.org/ns#"
   xmlns:rdf="http://www.w3.org/1999/02/22-rdf-syntax-ns#"
   xmlns:svg="http://www.w3.org/2000/svg"
   xmlns="http://www.w3.org/2000/svg"
   xmlns:sodipodi="http://sodipodi.sourceforge.net/DTD/sodipodi-0.dtd"
   xmlns:inkscape="http://www.inkscape.org/namespaces/inkscape"
   version="1.1"
   x="0px"
   y="0px"
   width="786.16888"
   height="451.80255"
   viewBox="0 0 786.16888 451.80255"
   xml:space="preserve"
   id="svg3078"
   inkscape:version="0.48.5 r10040"
   sodipodi:docname="fox_horizontal_tails.svg"><metadata
   id="metadata3161"><rdf:RDF><cc:Work
       rdf:about=""><dc:format>image/svg+xml</dc:format><dc:type
         rdf:resource="http://purl.org/dc/dcmitype/StillImage" /><dc:title></dc:title></cc:Work></rdf:RDF></metadata><defs
   id="defs3159" /><sodipodi:namedview
   pagecolor="#ffffff"
   bordercolor="#666666"
   borderopacity="1"
   objecttolerance="10"
   gridtolerance="10"
   guidetolerance="10"
   inkscape:pageopacity="0"
   inkscape:pageshadow="2"
   inkscape:window-width="1600"
   inkscape:window-height="847"
   id="namedview3157"
   showgrid="false"
   inkscape:zoom="1.08"
   inkscape:cx="575.57494"
   inkscape:cy="168.31191"
   inkscape:window-x="-8"
   inkscape:window-y="-8"
   inkscape:window-maximized="1"
   inkscape:current-layer="Layer_1"
   inkscape:snap-global="false"
   fit-margin-top="0"
   fit-margin-left="0"
   fit-margin-right="0"
   fit-margin-bottom="0" />
<style
   type="text/css"
   id="style3080">

	.st0{fill:#E04946;}
	.st1{fill:#FFE78C;stroke:#000000;stroke-width:4;stroke-miterlimit:10;}
	.st2{fill:#FFE78C;stroke:#000000;stroke-miterlimit:10;}
	.st3{fill:#FFFFE3;stroke:#000000;stroke-width:4;stroke-miterlimit:10;}
	.st4{opacity:0.5;fill:#9FF5FF;}
	.st5{stroke:#000000;stroke-width:4;stroke-miterlimit:10;}
	.st6{fill:#FFE78C;}
	.st7{fill:#FFFFFF;stroke:#000000;stroke-width:4;stroke-miterlimit:10;}
	.st8{fill:#E04946;stroke:#000000;stroke-width:4;stroke-miterlimit:10;}
	.st9{fill:#FFFC84;stroke:#000000;stroke-width:4;stroke-miterlimit:10;}
	.st10{stroke:#000000;stroke-miterlimit:10;}

</style>
<g
   id="Layer_1"
   transform="matrix(1.9065808,0,0,1.9065808,-104.38411,-556.75336)">
	
	
	
	
	
	
	
	
	
	
	
	
	
	
	
	
	
	
	
	
	
	<path
   class="st9"
   d="m 105.7,455.6 c 0,0 -20.5,13.4 -25.9,15.8 -2.8,1.2 -3.3,1.1 -5.6,1.6 -2.2,0.4 -11.5,-0.3 -15,3.3 -3.3,3.4 -3.1,7.4 -0.4,10.6 3,3.6 8.6,3.8 13.1,3.2 6.2,-0.9 38.5,-18.1 42.8,-23.1 2.2,-2.6 -2.8,-13.3 -2.8,-13.3 l -6.2,1.9 z"
   id="path3125"
   inkscape:connector-curvature="0"
   style="fill:#fffc84;stroke:#000000;stroke-width:4;stroke-miterlimit:10" />
	<path
   class="st1"
   d="m 217.5,426.3 -22.5,7 c 0,0 8.7,10.4 15.6,8.6 7.5,-1.9 11.3,-10.4 12.2,-8.5 1.5,3.3 2.4,16.2 2.4,16.2 1.9,10.2 7.5,8.6 8.8,8.3 5.2,-1.2 7.2,-21.8 7.1,-23.5 -0.3,-7.3 -7.8,-15.6 -7.8,-15.6 l -15.8,7.5 z"
   id="path3127"
   inkscape:connector-curvature="0"
   style="fill:#ffe78c;stroke:#000000;stroke-width:4;stroke-miterlimit:10" />
	<path
   class="st8"
   d="m 228.23405,445.16979 c 0.4,-4 -5.83405,-11.36979 -5.43405,-10.46979 1.5,3.3 2.2283,16.88681 2.2283,16.88681 1.9,10.2 7.6717,7.91319 8.9717,7.61319 5.2,-1.2 7.2,-21.8 7.1,-23.5 -0.3,-7.3 -7.8,-15.6 -7.8,-15.6 0,0 6.3,9.3 6.7,13 0.2,2.4 -3.6,8.6 -3.6,8.6 l -4.5,-6 -1,8.4 -3.6,-6.2 c 0,0 0.63405,9.86979 0.93405,7.26979 z"
   id="path3129"
   inkscape:connector-curvature="0"
   style="fill:#e04946;stroke:#000000;stroke-width:4;stroke-miterlimit:10"
   sodipodi:nodetypes="cccscccccccc" />
	<path
   class="st1"
   d="m 237.5,417.9 c -5.3,16.1 -29.1,13 -31.8,13.6 -2.9,0.7 -8.7,-0.3 -21.3,14.8 -11.6,13.8 -23.3,16.2 -33.2,18.1 0,0 -10.1,18.9 -13.5,24.1 -4.9,7.5 -15.3,20.7 -16.1,22.9 -2.8,7.5 -7.1,11.8 -8.8,13.3 -1.8,1.7 -9.2,4.4 -14.8,-1.7 -5,-5.5 2.1,-11.8 6,-14.9 9.7,-7.6 28,-47.8 32.8,-54.7 2,-2.9 -5.9,10.2 -8.5,11.2 -0.7,0.2 -0.2,-1 -0.8,-0.6 -0.9,0.5 -1.3,2.8 -2,3 -1,0.3 -0.3,-3.2 -1.2,-2.7 -2.3,1.1 -3.8,13.6 -6.2,13.2 -0.6,-0.1 -3.4,-4 -4.3,-5.3 -0.7,-1.1 -1.37314,0.59899 -3.15523,2.68109 C 108.73531,472.60744 113.1,460.3 111.2,456.7 c -1.3,-2.3 -7.5,5.2 -7.5,5.2 0.4,-15 4.8,-14.3 4.8,-14.3 -5.7,-9.1 -14.5,0.2 -12.2,-3.8 4.5,-7.9 15,-6.6 15,-6.6 0,0 33.4,-12.5 49.3,-29.8 16,-17.5 42.5,-15.4 44.9,-15.2 11.5,0.9 24.3,9.1 28.7,9.8 3.8,0.6 9,-3.6 14.5,-1.3 4.5,1.8 21.6,13.7 21.9,18.7 0.4,8.6 -2.6,7.4 -7.7,6.8 -7.2,-0.7 -25.4,-8.3 -25.4,-8.3 z"
   id="path3131"
   inkscape:connector-curvature="0"
   style="fill:#ffe78c;stroke:#000000;stroke-width:4;stroke-miterlimit:10"
   sodipodi:nodetypes="ccccccccccccccscccccccccccccc" /><path
   class="st8"
   d="m 248.83384,415.75504 c 1.70788,0.2513 10.26722,-1.29395 10.26722,-1.29395 l -8.39664,-3.26137 6.13746,-2.27633 c 0,0 -4.721,-4.93259 -3.91276,-4.65558 4.03838,1.28511 17.32164,8.27385 17.7644,13.26324 0.64562,8.58505 -2.38745,7.47128 -7.50252,7.01728 -7.11995,-0.59676 -18.71464,-3.75684 -16.80683,-3.51129 l 7.16497,-1.31516 -4.71529,-3.96687 z"
   id="path3139"
   inkscape:connector-curvature="0"
   style="fill:#e04946;stroke:#000000;stroke-width:4;stroke-miterlimit:10"
   sodipodi:nodetypes="ccccccccccc" />
	<path
   class="st3"
   d="m 236.4,406.6 c 1.8,2.4 2,4.8 2,6.3 0,1.7 -0.4,3.8 -0.8,5"
   id="path3133"
   inkscape:connector-curvature="0"
   style="fill:#ffffe3;stroke:#000000;stroke-width:4;stroke-miterlimit:10" />
	<path
   class="st8"
   d="m 131.1,497.7 c -4.9,7.5 -9.1,11.7 -9.9,13.9 -2.8,7.5 -7.1,11.8 -8.8,13.3 -1.8,1.7 -9.2,4.4 -14.8,-1.7 -5,-5.5 2.1,-11.8 6,-14.9 9.7,-7.6 26,-43.2 30.8,-50 l -14,32 7.9,-7.9 -1.2,11.7 6.9,-8.3 -2.9,11.9 z"
   id="path3135"
   inkscape:connector-curvature="0"
   style="fill:#e04946;stroke:#000000;stroke-width:4;stroke-miterlimit:10" />
	<path
   class="st8"
   d="m 94.1,463.7 c 0,0 -8.6,5.3 -14,7.7 -2.8,1.2 -3.3,1.1 -5.6,1.6 -2.2,0.4 -11.5,-0.3 -15,3.3 -3.3,3.4 -3.1,7.4 -0.4,10.6 3,3.6 8.6,3.8 13.1,3.2 6.2,-0.9 22.9,-9.5 27.8,-13.3 l -6.3,1.4 5.4,-4.6 -6.4,0.2 6.1,-8.5 -10.2,4.9 5.5,-6.5 z"
   id="path3137"
   inkscape:connector-curvature="0"
   style="fill:#e04946;stroke:#000000;stroke-width:4;stroke-miterlimit:10" />
	
	<path
   class="st7"
   d="m 115.3,437.5 c 0,0 -14.4,-3 -19.1,6.8 -2,4.1 6.4,-5.4 12.2,3.8 0,0 -4.3,-0.7 -4.8,14.3 0,0 6.3,-7.5 7.5,-5.2 1.9,3.6 -0.5005,18.36268 0.0995,17.36268 0.7,-1.2 1.8005,-3.06268 2.5005,-1.86268 0.8,1.3 3.6,5.2 4.3,5.3 2.4,0.4 4,-12.2 6.2,-13.2 1,-0.5 0.2,3 1.2,2.7 0.7,-0.2 1.1,-2.5 2,-3 0.6,-0.4 0.1,0.9 0.8,0.6 2.6,-0.9 7.1,-9 8.5,-11.2 0,0 2.5,-4.9 1,-5.5 -0.9,-0.4 4.5,-6.4 11.9,-3.2 4.7,2 0.6,-7.2 -10.4,-8.5 -3.8,-0.4 10.3,-10.6 15.6,-20 5.6,-9.8 -39.5,20.8 -39.5,20.8 z"
   id="path3141"
   inkscape:connector-curvature="0"
   style="fill:#ffffff;stroke:#000000;stroke-width:4;stroke-miterlimit:10"
   sodipodi:nodetypes="cccccccccccccccccc" />
	<path
   class="st1"
   d="m 97.713496,375.55503 c -3.539727,5.44574 -2.813627,9.62081 -3.902777,20.9661 -1.996772,21.60144 0,21.60144 0.63534,29.58852 0.45381,6.08108 13.342071,24.50583 21.873731,25.59498 8.53166,1.08915 33.40054,-17.97094 35.76036,-25.59498 2.35982,-7.53327 0.81686,-5.35498 1.63373,-15.33883 0.0908,-1.17991 3.99354,-13.16054 2.6321,-34.30817 -0.54457,-8.98547 -22.59982,20.33077 -25.68574,22.14601 -3.63049,2.1783 -11.07301,1.63373 -14.7035,0.90763 -1.81525,-0.36305 -13.34206,-31.40377 -18.243244,-23.96126 z"
   id="path3143"
   inkscape:connector-curvature="0"
   style="fill:#ffe78c;stroke:#000000;stroke-width:3.63049364;stroke-miterlimit:10" />
	<path
   class="st10"
   d="m 112.59853,440.99468 c 1.54296,-0.54458 6.80718,-0.0908 6.9887,0.7261 0.45382,1.54295 -2.6321,3.81201 -3.53973,3.81201 -1.63372,0 -4.35659,-4.17506 -3.44897,-4.53811 z"
   id="path3145"
   inkscape:connector-curvature="0"
   style="stroke:#000000;stroke-width:0.90762341;stroke-miterlimit:10" />
	<path
   class="st10"
   d="m 139.28266,422.66068 c 4.08431,-0.99838 -9.07623,-0.36305 -10.98224,1.81525 -1.54296,1.72448 -8.16861,12.34368 -4.62888,7.7148 3.99354,-5.26422 7.80556,-7.62404 15.61112,-9.53005 z"
   id="path3147"
   inkscape:connector-curvature="0"
   style="stroke:#000000;stroke-width:0.90762341;stroke-miterlimit:10" />
	<path
   class="st5"
   d="m 112.41701,393.25368 c 0.7261,1.72449 -10.52843,-23.41668 -13.886654,-15.15731 -2.45058,5.99032 -4.175067,6.9887 -4.628877,18.334 -0.0908,1.90601 4.991927,-8.71319 4.991927,-8.71319 l 1.906024,8.53166 3.44897,-6.17184 8.16861,3.17668 z"
   id="path3149"
   inkscape:connector-curvature="0"
   style="stroke:#000000;stroke-width:3.63049364;stroke-miterlimit:10" />
	<path
   class="st5"
   d="m 154.43997,400.78696 c 0.7261,-1.54296 1.27068,-4.99193 0.90763,-20.78458 -0.18153,-6.9887 -17.42637,11.70834 -19.24162,13.61435 -0.81686,0.81687 10.07462,-1.63372 10.07462,-1.63372 l 2.1783,5.71803 2.45058,-5.62727 3.63049,8.71319 z"
   id="path3151"
   inkscape:connector-curvature="0"
   style="stroke:#000000;stroke-width:3.63049364;stroke-miterlimit:10" />
	
	<path
   class="st10"
   d="m 99.347226,419.75629 c -2.9044,-1.81525 7.351754,1.36143 8.531664,3.63049 0.99839,1.81525 4.71964,12.52521 2.63211,7.80556 -2.54134,-5.5365 -4.44735,-7.17022 -11.163774,-11.43605 z"
   id="path3155"
   inkscape:connector-curvature="0"
   style="stroke:#000000;stroke-width:0.90762341;stroke-miterlimit:10" />
<path
   style="fill:#ffe78c;fill-opacity:1;stroke-width:42.74599838;stroke-miterlimit:4;stroke-dasharray:none"
   d="m 98.848093,469.37159 c 0.633971,-0.76389 1.691647,-1.38889 2.350387,-1.38889 0.65874,0 2.5193,-1.66865 4.13458,-3.7081 3.31857,-4.19004 4.62614,-4.07259 4.62614,0.41552 0,3.88588 -3.0279,6.07036 -8.41413,6.07036 -3.316929,0 -3.690143,-0.1922 -2.696977,-1.38889 z"
   id="path3163"
   inkscape:connector-curvature="0" /></g>
</svg>