<?xml version="1.0" encoding="UTF-8" standalone="no"?>
<!-- Generator: Adobe Illustrator 16.0.4, SVG Export Plug-In . SVG Version: 6.00 Build 0)  -->

<svg
   xmlns:dc="http://purl.org/dc/elements/1.1/"
   xmlns:cc="http://creativecommons.org/ns#"
   xmlns:rdf="http://www.w3.org/1999/02/22-rdf-syntax-ns#"
   xmlns:svg="http://www.w3.org/2000/svg"
   xmlns="http://www.w3.org/2000/svg"
   xmlns:sodipodi="http://sodipodi.sourceforge.net/DTD/sodipodi-0.dtd"
   xmlns:inkscape="http://www.inkscape.org/namespaces/inkscape"
   version="1.1"
   x="0px"
   y="0px"
   width="792px"
   height="612px"
   viewBox="0 0 792 612"
   style="enable-background:new 0 0 792 612;"
   xml:space="preserve"
   id="svg3623"
   inkscape:version="0.48.5 r10040"
   sodipodi:docname="logo.svg"><metadata
   id="metadata4043"><rdf:RDF><cc:Work
       rdf:about=""><dc:format>image/svg+xml</dc:format><dc:type
         rdf:resource="http://purl.org/dc/dcmitype/StillImage" /></cc:Work></rdf:RDF></metadata><defs
   id="defs4041" /><sodipodi:namedview
   pagecolor="#ffffff"
   bordercolor="#666666"
   borderopacity="1"
   objecttolerance="10"
   gridtolerance="10"
   guidetolerance="10"
   inkscape:pageopacity="0"
   inkscape:pageshadow="2"
   inkscape:window-width="1600"
   inkscape:window-height="847"
   id="namedview4039"
   showgrid="false"
   inkscape:zoom="2.1641753"
   inkscape:cx="396"
   inkscape:cy="121.17209"
   inkscape:window-x="-8"
   inkscape:window-y="-8"
   inkscape:window-maximized="1"
   inkscape:current-layer="svg3623" />
<style
   type="text/css"
   id="style3625">

	.st0{fill:#E04946;}
	.st1{fill:#FFE78C;stroke:#000000;stroke-width:4;stroke-miterlimit:10;}
	.st2{fill:#FFE78C;stroke:#000000;stroke-miterlimit:10;}
	.st3{fill:#FFFFE3;stroke:#000000;stroke-width:4;stroke-miterlimit:10;}
	.st4{opacity:0.5;fill:#9FF5FF;}
	.st5{stroke:#000000;stroke-width:4;stroke-miterlimit:10;}
	.st6{fill:#FFE78C;}
	.st7{fill:#FFFFFF;stroke:#000000;stroke-width:4;stroke-miterlimit:10;}
	.st8{fill:#E04946;stroke:#000000;stroke-width:4;stroke-miterlimit:10;}
	.st9{fill:#FFFC84;stroke:#000000;stroke-width:4;stroke-miterlimit:10;}
	.st10{stroke:#000000;stroke-miterlimit:10;}

</style>
<g
   id="Layer_4">
</g>
<g
   id="Layer_2">
	<rect
   x="516"
   y="68.7"
   class="st4"
   width="20.7"
   height="70"
   id="rect3629" />
	<rect
   x="460.9"
   y="88"
   class="st4"
   width="63.7"
   height="27.4"
   id="rect3631" />
	<rect
   x="419.5"
   y="53.5"
   class="st4"
   width="55.1"
   height="47.3"
   id="rect3633" />
	<rect
   x="364.4"
   y="77.5"
   class="st4"
   width="20.7"
   height="29.2"
   id="rect3635" />
	<rect
   x="364.4"
   y="118.3"
   class="st4"
   width="41.4"
   height="35"
   id="rect3637" />
	<rect
   x="426.4"
   y="124.2"
   class="st4"
   width="27.6"
   height="23.3"
   id="rect3639" />
	<rect
   x="288.6"
   y="77.5"
   class="st4"
   width="48.2"
   height="29.2"
   id="rect3641" />
	<rect
   x="295.5"
   y="124.2"
   class="st4"
   width="6.9"
   height="40.8"
   id="rect3643" />
	<rect
   x="226.5"
   y="141.7"
   class="st4"
   width="27.6"
   height="17.5"
   id="rect3645" />
	<rect
   x="192.1"
   y="188.3"
   class="st4"
   width="6.9"
   height="35"
   id="rect3647" />
	<rect
   x="171.4"
   y="141.7"
   class="st4"
   width="20.7"
   height="35"
   id="rect3649" />
	<rect
   x="205.9"
   y="188.3"
   class="st4"
   width="13.8"
   height="17.5"
   id="rect3651" />
	<rect
   x="226.5"
   y="95"
   class="st4"
   width="13.8"
   height="17.5"
   id="rect3653" />
	<rect
   x="267.9"
   y="153.3"
   class="st4"
   width="13.8"
   height="23.3"
   id="rect3655" />
	<rect
   x="240.3"
   y="200"
   class="st4"
   width="6.9"
   height="11.7"
   id="rect3657" />
	<rect
   x="150.7"
   y="200"
   class="st4"
   width="20.7"
   height="23.3"
   id="rect3659" />
	<rect
   x="178.3"
   y="270"
   class="st4"
   width="0"
   height="23.3"
   id="rect3661" />
	<rect
   x="130"
   y="264.2"
   class="st4"
   width="20.7"
   height="17.5"
   id="rect3663" />
	<rect
   x="171.4"
   y="281.7"
   class="st4"
   width="13.8"
   height="17.5"
   id="rect3665" />
	<rect
   x="136.9"
   y="305"
   class="st4"
   width="13.8"
   height="40.8"
   id="rect3667" />
	<rect
   x="192.1"
   y="240.8"
   class="st4"
   width="20.7"
   height="11.7"
   id="rect3669" />
	<rect
   x="116.3"
   y="235"
   class="st4"
   width="20.7"
   height="17.5"
   id="rect3671" />
	<rect
   x="130"
   y="176.7"
   class="st4"
   width="13.8"
   height="17.5"
   id="rect3673" />
	<rect
   x="122.8"
   y="211.7"
   class="st4"
   width="7.2"
   height="27.3"
   id="rect3675" />
	<rect
   x="192.1"
   y="124.2"
   class="st4"
   width="27.6"
   height="5.8"
   id="rect3677" />
	<rect
   x="254.1"
   y="95"
   class="st4"
   width="6.9"
   height="5.8"
   id="rect3679" />
	<rect
   x="336.8"
   y="48.8"
   class="st4"
   width="20.7"
   height="11.2"
   id="rect3681" />
	<polyline
   class="st4"
   points="405.7,33.3 405.7,47.6 412.6,47.6 412.6,33.3  "
   id="polyline3683" />
	<rect
   x="329.9"
   y="130"
   class="st4"
   width="6.9"
   height="11.7"
   id="rect3685" />
	<rect
   x="288.6"
   y="188.3"
   class="st4"
   width="20.7"
   height="0"
   id="rect3687" />
	<rect
   x="254.1"
   y="106.7"
   class="st4"
   width="13.8"
   height="23.3"
   id="rect3689" />
	<rect
   x="298.9"
   y="176.7"
   class="st4"
   width="10.3"
   height="11.7"
   id="rect3691" />
	<rect
   x="316.1"
   y="135.8"
   class="st4"
   width="27.6"
   height="11.7"
   id="rect3693" />
	<rect
   x="392"
   y="61.8"
   class="st4"
   width="26.8"
   height="44.8"
   id="rect3695" />
	<rect
   x="418.8"
   y="95.1"
   class="st4"
   width="52.3"
   height="11.5"
   id="rect3697" />
	<rect
   x="423.6"
   y="88"
   class="st4"
   width="21.4"
   height="42"
   id="rect3699" />
	<rect
   x="495.4"
   y="112.5"
   class="st4"
   width="13.8"
   height="40.8"
   id="rect3701" />
	<rect
   x="433.3"
   y="153.3"
   class="st4"
   width="34.5"
   height="35"
   id="rect3703" />
	<rect
   x="495.4"
   y="45.4"
   class="st4"
   width="27.6"
   height="23.3"
   id="rect3705" />
	<rect
   x="571.2"
   y="68.7"
   class="st4"
   width="13.8"
   height="35"
   id="rect3707" />
	<rect
   x="543.6"
   y="150.4"
   class="st4"
   width="6.9"
   height="29.2"
   id="rect3709" />
	<polygon
   class="st4"
   points="488.5,173.6 529.8,191.2 529.8,162 488.5,144.4  "
   id="polygon3711" />
	<rect
   x="564.3"
   y="167.9"
   class="st4"
   width="27.6"
   height="17.5"
   id="rect3713" />
	<rect
   x="602.8"
   y="156.2"
   class="st4"
   width="23.5"
   height="29.7"
   id="rect3715" />
	<rect
   x="532.9"
   y="512.1"
   class="st4"
   width="41.4"
   height="35"
   id="rect3717" />
	<rect
   x="491.9"
   y="443.5"
   class="st4"
   width="48.2"
   height="58.3"
   id="rect3719" />
	<rect
   x="626.8"
   y="402.8"
   class="st4"
   width="15.2"
   height="55.2"
   id="rect3721" />
	<rect
   x="606.1"
   y="458"
   class="st4"
   width="48.2"
   height="23.3"
   id="rect3723" />
	<rect
   x="679.6"
   y="278.7"
   class="st4"
   width="27.6"
   height="46.7"
   id="rect3725" />
	<rect
   x="679.6"
   y="313.7"
   class="st4"
   width="34.5"
   height="52.5"
   id="rect3727" />
	<rect
   x="638.2"
   y="272.9"
   class="st4"
   width="49.4"
   height="52.5"
   id="rect3729" />
	<rect
   x="615.8"
   y="393"
   class="st4"
   width="34.5"
   height="65.4"
   id="rect3731" />
	<rect
   x="479.5"
   y="506.2"
   class="st4"
   width="39.6"
   height="40.8"
   id="rect3733" />
	<rect
   x="552.6"
   y="431.3"
   class="st4"
   width="44.8"
   height="40.8"
   id="rect3735" />
	<rect
   x="601.3"
   y="272.9"
   class="st4"
   width="34.5"
   height="40.8"
   id="rect3737" />
	<rect
   x="454"
   y="208.7"
   class="st4"
   width="48.2"
   height="23.3"
   id="rect3739" />
	<rect
   x="541.2"
   y="500.4"
   class="st4"
   width="39.9"
   height="35.5"
   id="rect3741" />
	<rect
   x="658.9"
   y="336.5"
   class="st4"
   width="41.8"
   height="41.4"
   id="rect3743" />
	<rect
   x="573.1"
   y="433.3"
   class="st4"
   width="34.5"
   height="17.5"
   id="rect3745" />
	<rect
   x="586.9"
   y="462.5"
   class="st4"
   width="48.2"
   height="23.3"
   id="rect3747" />
	<rect
   x="665.8"
   y="230.5"
   class="st4"
   width="55.1"
   height="40.8"
   id="rect3749" />
	<rect
   x="425.8"
   y="524"
   class="st4"
   width="41.4"
   height="23.3"
   id="rect3751" />
	<rect
   x="439.6"
   y="518.2"
   class="st4"
   width="55.1"
   height="35"
   id="rect3753" />
	<rect
   x="550.5"
   y="240.8"
   class="st4"
   width="68.9"
   height="52.5"
   id="rect3755" />
	<rect
   x="502.8"
   y="500.5"
   class="st4"
   width="22.6"
   height="58"
   id="rect3757" />
	<rect
   x="571"
   y="482.9"
   class="st4"
   width="48.5"
   height="44.9"
   id="rect3759" />
	<rect
   x="569.2"
   y="420.4"
   class="st4"
   width="48.2"
   height="70"
   id="rect3761" />
	<rect
   x="475.2"
   y="451.9"
   class="st4"
   width="44.2"
   height="49.9"
   id="rect3763" />
	<rect
   x="601.9"
   y="395.4"
   class="st4"
   width="72.7"
   height="87.2"
   id="rect3765" />
	<rect
   x="651.8"
   y="395.4"
   class="st4"
   width="50.3"
   height="62.3"
   id="rect3767" />
	<rect
   x="674.4"
   y="348.7"
   class="st4"
   width="41.5"
   height="57.8"
   id="rect3769" />
	<rect
   x="653.9"
   y="331.2"
   class="st4"
   width="34.5"
   height="52.5"
   id="rect3771" />
	<rect
   x="680.3"
   y="290.4"
   class="st4"
   width="42.5"
   height="57.9"
   id="rect3773" />
	<rect
   x="653.9"
   y="267"
   class="st4"
   width="62"
   height="35"
   id="rect3775" />
	<rect
   x="640.1"
   y="202.9"
   class="st4"
   width="55.1"
   height="70"
   id="rect3777" />
	<rect
   x="612.5"
   y="179.5"
   class="st4"
   width="62"
   height="46.7"
   id="rect3779" />
	<rect
   x="591.2"
   y="127"
   class="st4"
   width="48.9"
   height="46.5"
   id="rect3781" />
	<rect
   x="602.8"
   y="144.5"
   class="st4"
   width="58"
   height="41.4"
   id="rect3783" />
	<rect
   x="509.1"
   y="115.4"
   class="st4"
   width="75.8"
   height="81.7"
   id="rect3785" />
	<rect
   x="591.2"
   y="103.7"
   class="st4"
   width="35.1"
   height="29.2"
   id="rect3787" />
	<rect
   x="557.4"
   y="45.4"
   class="st4"
   width="20.7"
   height="23.3"
   id="rect3789" />
	<rect
   x="571.6"
   y="384.7"
   class="st4"
   width="89.3"
   height="15.1"
   id="rect3791" />
	<rect
   x="557.8"
   y="433.4"
   class="st4"
   width="81.7"
   height="1.3"
   id="rect3793" />
	<rect
   x="585.4"
   y="358.9"
   class="st4"
   width="13.8"
   height="116.7"
   id="rect3795" />
	<rect
   x="450.9"
   y="500.4"
   class="st4"
   width="33.8"
   height="47.4"
   id="rect3797" />
	<rect
   x="603.8"
   y="305.6"
   class="st4"
   width="45.8"
   height="48.9"
   id="rect3799" />
	<rect
   x="538.7"
   y="433.3"
   class="st4"
   width="27.6"
   height="23.3"
   id="rect3801" />
	<rect
   x="580"
   y="486.2"
   class="st4"
   width="21.6"
   height="28.8"
   id="rect3803" />
	<rect
   x="395.4"
   y="465.4"
   class="st4"
   width="13.8"
   height="5.8"
   id="rect3805" />
	<rect
   x="511.1"
   y="421.6"
   class="st4"
   width="13.8"
   height="0"
   id="rect3807" />
	<rect
   x="235.8"
   y="106.7"
   class="st4"
   width="45.9"
   height="33.6"
   id="rect3809" />
	<rect
   x="261"
   y="49.9"
   class="st4"
   width="34.5"
   height="33.4"
   id="rect3811" />
	<rect
   x="178.7"
   y="135.8"
   class="st4"
   width="27.2"
   height="22.3"
   id="rect3813" />
	<rect
   x="208.4"
   y="165"
   class="st4"
   width="11.2"
   height="31.2"
   id="rect3815" />
	<rect
   x="226.5"
   y="170.8"
   class="st4"
   width="34.5"
   height="5.8"
   id="rect3817" />
	<rect
   x="329.9"
   y="106.7"
   class="st4"
   width="34.5"
   height="23.3"
   id="rect3819" />
	<rect
   x="336.8"
   y="45.2"
   class="st4"
   width="41.4"
   height="32.3"
   id="rect3821" />
	<rect
   x="378.2"
   y="30.9"
   class="st4"
   width="48.2"
   height="14.3"
   id="rect3823" />
	<rect
   x="474.7"
   y="13.1"
   class="st4"
   width="34.5"
   height="14.8"
   id="rect3825" />
	<rect
   x="516.3"
   y="33.7"
   class="st4"
   width="27.3"
   height="45.9"
   id="rect3827" />
	<rect
   x="447.1"
   y="54.7"
   class="st4"
   width="46.6"
   height="25.7"
   id="rect3829" />
	<rect
   x="541.2"
   y="76.1"
   class="st4"
   width="36.8"
   height="39.2"
   id="rect3831" />
	<rect
   x="591.8"
   y="80.4"
   class="st4"
   width="34.5"
   height="5.8"
   id="rect3833" />
	<rect
   x="555.5"
   y="23.8"
   class="st4"
   width="15.7"
   height="34.5"
   id="rect3835" />
	<rect
   x="571.2"
   y="80.4"
   class="st4"
   width="55.1"
   height="23.3"
   id="rect3837" />
	<rect
   x="585.2"
   y="102.2"
   class="st4"
   width="33.3"
   height="46.4"
   id="rect3839" />
	<rect
   x="571.2"
   y="197"
   class="st4"
   width="27.6"
   height="46.7"
   id="rect3841" />
	<rect
   x="578.1"
   y="156.2"
   class="st4"
   width="48.2"
   height="46.7"
   id="rect3843" />
	<rect
   x="536.7"
   y="208.7"
   class="st4"
   width="27.6"
   height="35"
   id="rect3845" />
	<rect
   x="585"
   y="249.5"
   class="st4"
   width="34.5"
   height="35"
   id="rect3847" />
	<rect
   x="585"
   y="218.7"
   class="st4"
   width="31.2"
   height="30.8"
   id="rect3849" />
	<rect
   x="661.3"
   y="197"
   class="st4"
   width="40.8"
   height="43.1"
   id="rect3851" />
	<rect
   x="663.7"
   y="319.5"
   class="st4"
   width="79.8"
   height="20.4"
   id="rect3853" />
	<rect
   x="743.5"
   y="366.2"
   class="st4"
   width="34.5"
   height="23.3"
   id="rect3855" />
	<rect
   x="698.7"
   y="395.4"
   class="st4"
   width="24.1"
   height="23.3"
   id="rect3857" />
	<rect
   x="729.7"
   y="255.4"
   class="st4"
   width="13.8"
   height="23.3"
   id="rect3859" />
	<rect
   x="658.9"
   y="138.7"
   class="st4"
   width="43.2"
   height="11.1"
   id="rect3861" />
	<rect
   x="688.3"
   y="149.8"
   class="st4"
   width="13.8"
   height="23.9"
   id="rect3863" />
	<rect
   x="640.1"
   y="62.9"
   class="st4"
   width="27.6"
   height="11.7"
   id="rect3865" />
	<rect
   x="653.9"
   y="97.9"
   class="st4"
   width="0"
   height="17.5"
   id="rect3867" />
	<rect
   x="316.1"
   y="48.8"
   class="st4"
   width="20.7"
   height="87.1"
   id="rect3869" />
	<rect
   x="212.8"
   y="95"
   class="st4"
   width="144.7"
   height="11.7"
   id="rect3871" />
	<rect
   x="230"
   y="83.3"
   class="st4"
   width="24.1"
   height="23.3"
   id="rect3873" />
	<rect
   x="598.7"
   y="459.6"
   class="st4"
   width="124.1"
   height="17.5"
   id="rect3875" />
	<rect
   x="665.7"
   y="409.3"
   class="st4"
   width="17.7"
   height="123.9"
   id="rect3877" />
	<rect
   x="594.7"
   y="541.2"
   class="st4"
   width="19.8"
   height="23.3"
   id="rect3879" />
	<rect
   x="589.5"
   y="242.2"
   class="st4"
   width="24.1"
   height="75.8"
   id="rect3881" />
	<rect
   x="628.2"
   y="495.4"
   class="st4"
   width="27.6"
   height="23.3"
   id="rect3883" />
	<rect
   x="550.5"
   y="421"
   class="st4"
   width="34.5"
   height="17.5"
   id="rect3885" />
	<rect
   x="496.9"
   y="407.1"
   class="st4"
   width="20.7"
   height="17.5"
   id="rect3887" />
	<rect
   x="524.9"
   y="474.1"
   class="st4"
   width="34.5"
   height="11.7"
   id="rect3889" />
	<rect
   x="524.9"
   y="415.8"
   class="st4"
   width="6.9"
   height="17.5"
   id="rect3891" />
	<rect
   x="704.6"
   y="493.2"
   class="st4"
   width="13.8"
   height="22.1"
   id="rect3893" />
	<rect
   x="653.9"
   y="570.4"
   class="st4"
   width="13.8"
   height="17.5"
   id="rect3895" />
	<rect
   x="458"
   y="494.6"
   class="st4"
   width="74.9"
   height="23.3"
   id="rect3897" />
	<rect
   x="446.1"
   y="495.5"
   class="st4"
   width="38"
   height="35.7"
   id="rect3899" />
	<rect
   x="386.3"
   y="440.7"
   class="st4"
   width="6.9"
   height="17.5"
   id="rect3901" />
	<rect
   x="398.9"
   y="486.7"
   class="st4"
   width="13.8"
   height="17.5"
   id="rect3903" />
	<rect
   x="476.6"
   y="421.6"
   class="st4"
   width="20.7"
   height="23.3"
   id="rect3905" />
	<rect
   x="719.4"
   y="196.3"
   class="st4"
   width="20.7"
   height="21.1"
   id="rect3907" />
	<rect
   x="514.1"
   y="567.5"
   class="st4"
   width="6.9"
   height="5.8"
   id="rect3909" />
	<rect
   x="480.7"
   y="573.3"
   class="st4"
   width="6.9"
   height="11.7"
   id="rect3911" />
	<rect
   x="95.5"
   y="310.8"
   class="st4"
   width="7.1"
   height="11.7"
   id="rect3913" />
	<rect
   x="729.7"
   y="401.4"
   class="st4"
   width="13.8"
   height="17.5"
   id="rect3915" />
	<rect
   x="548.4"
   y="408.5"
   class="st4"
   width="14.3"
   height="5.8"
   id="rect3917" />
	<rect
   x="77.7"
   y="252.5"
   class="st4"
   width="7.1"
   height="5.8"
   id="rect3919" />
	<rect
   x="143.8"
   y="130"
   class="st4"
   width="13.8"
   height="11.7"
   id="rect3921" />
	<rect
   x="212.8"
   y="52.3"
   class="st4"
   width="0"
   height="13.5"
   id="rect3923" />
	<rect
   x="150.7"
   y="65.8"
   class="st4"
   width="20.7"
   height="11.7"
   id="rect3925" />
	<rect
   x="107.4"
   y="112.5"
   class="st4"
   width="8.9"
   height="35"
   id="rect3927" />
	<rect
   x="214"
   y="48.8"
   class="st4"
   width="12.5"
   height="11.2"
   id="rect3929" />
	<rect
   x="81.2"
   y="200"
   class="st4"
   width="10.7"
   height="5.8"
   id="rect3931" />
	<rect
   x="58.6"
   y="275.8"
   class="st4"
   width="19"
   height="17.6"
   id="rect3933" />
	<rect
   x="107.4"
   y="170.8"
   class="st4"
   width="8.9"
   height="52.5"
   id="rect3935" />
	<rect
   x="130"
   y="106.7"
   class="st4"
   width="27.6"
   height="5.8"
   id="rect3937" />
	<rect
   x="42"
   y="223.3"
   class="st4"
   width="16.6"
   height="17.5"
   id="rect3939" />
	<rect
   x="502.2"
   y="45.4"
   class="st4"
   width="27.7"
   height="35"
   id="rect3941" />
	<rect
   x="612.2"
   y="402.8"
   class="st4"
   width="14.5"
   height="28.2"
   id="rect3943" />
	<rect
   x="590.8"
   y="428.6"
   class="st4"
   width="47.5"
   height="41.6"
   id="rect3945" />
	<rect
   x="510.1"
   y="433.3"
   class="st4"
   width="28.5"
   height="28.5"
   id="rect3947" />
</g>
<g
   id="Layer_1">
	<path
   class="st2"
   d="M576.9,480c0,0,33.3-15.5,41.7-23.5c4.7-4.6-30.7,3.2-30.7,3.2c-10.5,4.8-33.1,7.3-33.1,7.3L576.9,480z"
   id="path3950" />
	<path
   class="st1"
   d="M598,217.2c0,0,2,4.1,2,4.1c1.3,1.1-22.7-13.2-23.8-21.7c-5-37.6-35.8-36-60.1-40.9c-8-1.6-13.8-3.6-16.3-14.2   c-2.6-10.8,2.5-22.7,14.1-27.6c10-4.3,24.5,7.2,24.5,7.2s-33,21.8,5.3,18.9c36.3-2.8,46.6,15.4,51.3,27.1   c7.9,19.5,22,32.2,31.4,43.7c5.9,7.3,34.8,20.7,34.8,20.7l6.5,23.8l-32.4-10.4C635.3,247.9,598,217.3,598,217.2z"
   id="path3952" />
	<path
   class="st1"
   d="M687.5,250.9c0,0-0.1-11.7-11.7-31.1c-13.6-22.8-6.7-26.8,0.2-43.2c6.4-15.2-1.6-38.5-20.7-37.9   c-20.1,0.6-31.3,32.4-17,19.6c8.5-7.6,16.9-6.4,18.6,3.4c2,11.5-25.7,26.1-24.2,47c1.1,14.5,18.8,31.9,18.3,33.5L687.5,250.9z"
   id="path3954" />
	<path
   class="st1"
   d="M711.2,311.8c0.3-3.3,2.2-32.1-10-47.9c0,0-4.7-8.2-12.9-14.9l0.2,0.2l-0.9-0.8c-3.4-2.8-6.9-4.7-11.8-5.9   c-16.6-4.1-45.7-6.5-45.7-6.5l57.8,89.6L711.2,311.8z"
   id="path3956" />
	<path
   class="st1"
   d="M680.4,342.9c1.3-42.4,43-47,57.1-43.6c34.5,8.3,32,46.5,22.7,57.6c-10.6,12.7-22.4,9.6-22.4,9.6   c-8.8-2.6-9.2-14.5-9-15.9c0.2-1.4,0.9,6.7,10,7.4c9.1,0.8,11.3-14.9,6.6-20.6c-4.7-5.7-19.8-7.8-29.8,0.3   c-9,7.3-13.7,26.9-13.5,31.8L680.4,342.9z"
   id="path3958" />
	<path
   class="st1"
   d="M626.3,272.9h6.7c0,0-40.9-3.9-58.6-14.8c-17.6-10.9-13.5-33.2-29.1-39.9c0,0-15.6-2-21.6-8.5   c-5-5.4-4.1-10.6-3.4-13.3c1-3.8,6.2,10.9,17.6,4c0,0,13.6-5.4,21.9,7.1c8.3,12.5,21.5,25.3,48.2,30.5l32.1,16.3L626.3,272.9z"
   id="path3960" />
	<path
   class="st1"
   d="M687.8,325.7c3.8-18.1,2-56.2-21.6-70.8c-11.9-7.3-34.5-17.9-38.3-19.9c0,0-22-10.5-28.4-19.7   c-5.4-7.8-0.8-15.7,0.5-17c6.4-6.5,21.5-2,20.5,9.5c-0.6,1.6-1.8,3.3-4.1,5.1c-7.1,5.2,11.6-3.1,13.4-10.2   c0.7-2.9,1.1-9.6-0.4-11.8c-4.6-7.1-20.2-19-38.9-8.3c-5.5,3.2-10.9,6.4-14.8,18.6l0,0.2c-1,4.3-2.2,9.6-0.1,15.3   c3.6,9.6,47,56.4,43,56.2l42.3,71.3h19.7C680.5,344.1,686.8,330.6,687.8,325.7z"
   id="path3962" />
	<path
   class="st1"
   d="M696.9,411.4c-0.1,0.4-0.2,0.7-0.2,0.7l-0.1,0.2c0-0.1,0.2-0.3,0.1-0.2c-13.3,4.9,23.6,6.1,23.6,6.1   c8.9,5.7,14.5,38.1,8.7,24.1c-1.9-4.5-9.9-10.2-9.9-10.2c-10.2-4.5-27.9,5.1-33.6,11.9c-5.8,6.7-11.6,18.7-24.8,33   C647.7,491.1,617,488,617,488l1.3-0.2c-0.1,0.1,22.9-35.5,22.9-35.5L696.9,411.4z"
   id="path3964" />
	<path
   class="st1"
   d="M562.3,472.7c0,0,5.8-5.7,17.5-9.9c5-1.8,11.3-3.2,26.1-4.8l0.4-12.7l-3-11.9c-30.2-0.1-63,24.8-63,24.8   L562.3,472.7z"
   id="path3966" />
	<path
   class="st6"
   d="M630.3,412.5c0.9,0.3,30,8.3,30,8.3l19.6-39.4l-22.8-32.1l-27.7,29.6"
   id="path3968" />
	<path
   class="st8"
   d="M685.6,424.3l11.5-2.2l-10.2,7.5l15.2-3.4l-6,5.9l10.7-0.6c4.4-1.1,8.9-0.5,11.7,0.8c0,0,8.7,5.2,10.6,9.7   c5.9,14.2,0.2-22.8-11.9-28.8c-6.5-3.2-8.2-4.3-22.8-1.3c-16.9,3.5-2.2,8.1-2.2,8.1L685.6,424.3z"
   id="path3970" />
	<path
   class="st1"
   d="M647,374.1c-2,18.1,5.6,55.9,0,60.6c-4.5,3.8-25.7,7.3-25.7,7.3l2.6-13.5l-10.7-31.8l0.3-29.4l-0.6,0.6   c0.1,0,0.2-0.1,0.3-0.1l0.3-0.5c0,0,24.8-44.3,17-66.1c-2.4-6.7-10-21.1-33.4-13.7c0,0-6.3,7.4,3.5,19.2c0,0,1.1,4.4,7.1,5.6   c5.1,1.1-3.7,8.1-12.5,2.7c-8.8-5.4-9.9-20.3-9.4-27.3c1.5-20.6,51-26.5,66.5,5.8C664.7,319.1,647.7,367.8,647,374.1z"
   id="path3972" />
	<path
   class="st1"
   d="M634,425.3c37.1-15.2,37.7-42.8,29.7-55.7c-9.3-15-14.9-30.8-13.9-29.6c1.7,2-2.5-5.2,11.2,0   c13.9,5.3,34.2,1.6,42,28.9c16.4,57.3-61.7,83.4-61.7,83.4L634,425.3z"
   id="path3974" />
	<path
   class="st1"
   d="M529.4,482.6c18.9,8.8,11.8,3,21.1,9.6c8.3,5.9,51.1,7.8,65.8,3.3c11.9-3.7,22.1-20.3,24.4-38.3   c1.5-11.8-0.8-25-7.9-32.7c0,0-15-17.6-15.7-19.6c0,0-9.2-18.3,8.3-22.6c9.9-2.4,16,11.5,15.2,15.8c0,0,0.4,4.7-8.8,6.9   c-4.8,1.1,16.2,3.3,17.3-10.8c0,0,6.3-23-24.5-27.4c-4.4-0.6-8.1-0.2-11.3,1.1l-0.3,0.1c-18.6,7.5-26,25.1-20.7,37.3   c7.7,17.6,23.7,58.4,2.9,62.3c-19.7,3.7-32.5-18.1-62.3-8C518.4,464.5,525.3,480.7,529.4,482.6z"
   id="path3976" />
	<path
   class="st8"
   d="M627.9,382c6.9,1.4,13.6,11.3,12.9,15.6c0,0,0.4,4.8-8.8,6.9c-4.8,1.1,16.2,3.3,17.3-10.8   c0,0,6.3-23-24.5-27.4c-4.4-0.6-8.1-0.2-11.3,1.1l-0.3,0.1c-1.2,0.5-3.2,1.9-3.2,1.9l12.3,0.5l-5.6,4.7l11.1,2.5l-7.7,1.7   L627.9,382z"
   id="path3978" />
	<path
   class="st8"
   d="M663.7,361.3c0,0-1.1,6.9,0,8.3c4.1,4.9-2.7-2.4-16.1-19.9c-12.6-16.4-1.3-35.7,18.1-31.7   c14.2,3,12.2,25.6,8.5,15.9c-7.5-19.4-23.4,2-8.5,6c14.1,3.8,18.8,6.3,18.8,6.3l8.9,8.6l-13.1-0.3l7.3,7.7l-16.5-2.4l3.1,9.8   L663.7,361.3z"
   id="path3980" />
	<path
   class="st8"
   d="M754.7,341.8l1.2,4.5l3.3-10l1.7,8.8c0,0,4.7-12.4,4.7-12.3c2.6,7.9,2.3,13.1-5.3,24.3   c-9.3,13.7-22.4,9.6-22.4,9.6c-8.8-2.6-9.2-14.5-9-15.9c0.2-1.4,0.9,6.7,10,7.4c9.1,0.8,10.1-15.8,7.2-19.9c-0.5-0.7,3,4.9,4.5,9.2   L754.7,341.8z"
   id="path3982" />
	<path
   class="st8"
   d="M618.5,287.2c0,0-31-9.9-19.9,16.4c2,4.7,12.6,10.1,17.7,3.7c1.8-2.2-1.7,14.4-21.1,7.7   c-12.3-4.3-25.2-50,19.4-43.1c1.3,0.2-7,3.9-7,3.9l10.1,1.6l-11.5,5.4L618.5,287.2z"
   id="path3984" />
	<path
   class="st8"
   d="M537.3,212.3l6.9,4.9c0,0-14.3-1.1-20.3-7.5c-5-5.4-7.7-12.7-1.6-19.4c11-12.1-6.7,12.8,15.8,10.1   c0,0,5.7-1.6,11.3-0.5c0.4,0.1,4.9,8,4.9,8l-9.2,0.2l4.2,3.1L537.3,212.3z"
   id="path3986" />
	<path
   class="st8"
   d="M516,115.6c36.8-14.9,45.9,12.4,34.5,15.8c-15,4.5-3.4,4.2-3.4-4.3c0-4.9-8.3-4.7-14.1-0.8   c-13.5,9-8.2,7.4-12.2,9.3l1.4-3.8l-7.6,0.3l6.2-5.3l-11.6,0.3C509.1,127,510.1,118,516,115.6z"
   id="path3988" />
	<path
   class="st8"
   d="M583.4,188.7c19.4-23.7,54.9-5.3,46,14.1c-3,6.7-19.4,14.1-12.3,9.8c3.1-1.9,5-8.9,1.4-13.5   c-4-5.1-13.6-7.9-20.6,3c-1.1,1.8,0.6-2.8,0.6-2.8l-9,3.6l7.5-9.5l-11.8,3.7l4.3-10.1L583.4,188.7z"
   id="path3990" />
	<path
   class="st9"
   d="M429.7,527.6c0,0-20.5,13.4-25.9,15.8c-2.8,1.2-3.3,1.1-5.6,1.6c-2.2,0.4-11.5-0.3-15,3.3   c-3.3,3.4-3.1,7.4-0.4,10.6c3,3.6,8.6,3.8,13.1,3.2c6.2-0.9,38.5-18.1,42.8-23.1c2.2-2.6-2.8-13.3-2.8-13.3L429.7,527.6z"
   id="path3992" />
	<path
   class="st1"
   d="M541.5,498.3l-22.5,7c0,0,8.7,10.4,15.6,8.6c7.5-1.9,11.3-10.4,12.2-8.5c1.5,3.3,2.4,16.2,2.4,16.2   c1.9,10.2,7.5,8.6,8.8,8.3c5.2-1.2,7.2-21.8,7.1-23.5c-0.3-7.3-7.8-15.6-7.8-15.6L541.5,498.3z"
   id="path3994" />
	<path
   class="st8"
   d="M548.8,518.2c0.4-4-2.4-12.4-2-11.5c1.5,3.3,2.4,16.2,2.4,16.2c1.9,10.2,7.5,8.6,8.8,8.3   c5.2-1.2,7.2-21.8,7.1-23.5c-0.3-7.3-7.8-15.6-7.8-15.6s6.3,9.3,6.7,13c0.2,2.4-3.6,8.6-3.6,8.6l-4.5-6l-1,8.4l-3.6-6.2   C551.3,509.9,548.5,520.8,548.8,518.2z"
   id="path3996" />
	<path
   class="st1"
   d="M561.5,489.9c-5.3,16.1-29.1,13-31.8,13.6c-2.9,0.7-8.7-0.3-21.3,14.8c-11.6,13.8-23.3,16.2-33.2,18.1   c0,0-10.1,18.9-13.5,24.1c-4.9,7.5-15.3,20.7-16.1,22.9c-2.8,7.5-7.1,11.8-8.8,13.3c-1.8,1.7-9.2,4.4-14.8-1.7   c-5-5.5,2.1-11.8,6-14.9c9.7-7.6,28-47.8,32.8-54.7c2-2.9-5.9,10.2-8.5,11.2c-0.7,0.2-0.2-1-0.8-0.6c-0.9,0.5-1.3,2.8-2,3   c-1,0.3-0.3-3.2-1.2-2.7c-2.3,1.1-3.8,13.6-6.2,13.2c-0.6-0.1-3.4-4-4.3-5.3c-0.7-1.1,0.1,4.2-0.7,5.3c-0.6,1,0-17.2-1.9-20.8   c-1.3-2.3-7.5,5.2-7.5,5.2c0.4-15,4.8-14.3,4.8-14.3c-5.7-9.1-14.5,0.2-12.2-3.8c4.5-7.9,15-6.6,15-6.6s33.4-12.5,49.3-29.8   c16-17.5,42.5-15.4,44.9-15.2c11.5,0.9,24.3,9.1,28.7,9.8c3.8,0.6,9-3.6,14.5-1.3c4.5,1.8,21.6,13.7,21.9,18.7   c0.4,8.6-2.6,7.4-7.7,6.8C579.7,497.5,561.5,489.9,561.5,489.9z"
   id="path3998" />
	<path
   class="st3"
   d="M560.4,478.6c1.8,2.4,2,4.8,2,6.3c0,1.7-0.4,3.8-0.8,5"
   id="path4000" />
	<path
   class="st8"
   d="M455.1,569.7c-4.9,7.5-9.1,11.7-9.9,13.9c-2.8,7.5-7.1,11.8-8.8,13.3c-1.8,1.7-9.2,4.4-14.8-1.7   c-5-5.5,2.1-11.8,6-14.9c9.7-7.6,26-43.2,30.8-50l-14,32l7.9-7.9l-1.2,11.7l6.9-8.3L455.1,569.7z"
   id="path4002" />
	<path
   class="st8"
   d="M418.1,535.7c0,0-8.6,5.3-14,7.7c-2.8,1.2-3.3,1.1-5.6,1.6c-2.2,0.4-11.5-0.3-15,3.3   c-3.3,3.4-3.1,7.4-0.4,10.6c3,3.6,8.6,3.8,13.1,3.2c6.2-0.9,22.9-9.5,27.8-13.3l-6.3,1.4l5.4-4.6l-6.4,0.2l6.1-8.5l-10.2,4.9   L418.1,535.7z"
   id="path4004" />
	<path
   class="st8"
   d="M572.7,488c1.7,0.3,10.3-1,10.3-1l-8.3-3.5l6.2-2.1c0,0-9.1-8.9-8.3-8.6c4,1.4,21.6,12.6,21.9,17.6   c0.4,8.6-2.6,7.4-7.7,6.8c-7.1-0.8-24.1-6.3-22.2-6l12.7,0.9L572.7,488z"
   id="path4006" />
	<path
   class="st7"
   d="M439.3,509.5c0,0-14.4-3-19.1,6.8c-2,4.1,6.4-5.4,12.2,3.8c0,0-4.3-0.7-4.8,14.3c0,0,6.3-7.5,7.5-5.2   c1.9,3.6,1.3,21.8,1.9,20.8c0.7-1.2,0-6.5,0.7-5.3c0.8,1.3,3.6,5.2,4.3,5.3c2.4,0.4,4-12.2,6.2-13.2c1-0.5,0.2,3,1.2,2.7   c0.7-0.2,1.1-2.5,2-3c0.6-0.4,0.1,0.9,0.8,0.6c2.6-0.9,7.1-9,8.5-11.2c0,0,2.5-4.9,1-5.5c-0.9-0.4,4.5-6.4,11.9-3.2   c4.7,2,0.6-7.2-10.4-8.5c-3.8-0.4,10.3-10.6,15.6-20C484.4,478.9,439.3,509.5,439.3,509.5z"
   id="path4008" />
	<path
   class="st1"
   d="M422.4,430c-3.9,6-3.1,10.6-4.3,23.1c-2.2,23.8,0,23.8,0.7,32.6c0.5,6.7,14.7,27,24.1,28.2   s36.8-19.8,39.4-28.2c2.6-8.3,0.9-5.9,1.8-16.9c0.1-1.3,4.4-14.5,2.9-37.8c-0.6-9.9-24.9,22.4-28.3,24.4c-4,2.4-12.2,1.8-16.2,1   C440.5,456,427.8,421.8,422.4,430z"
   id="path4010" />
	<path
   class="st10"
   d="M438.8,502.1c1.7-0.6,7.5-0.1,7.7,0.8c0.5,1.7-2.9,4.2-3.9,4.2C440.8,507.1,437.8,502.5,438.8,502.1z"
   id="path4012" />
	<path
   class="st10"
   d="M468.2,481.9c4.5-1.1-10-0.4-12.1,2c-1.7,1.9-9,13.6-5.1,8.5C455.4,486.6,459.6,484,468.2,481.9z"
   id="path4014" />
	<path
   class="st5"
   d="M438.6,449.5c0.8,1.9-11.6-25.8-15.3-16.7c-2.7,6.6-4.6,7.7-5.1,20.2c-0.1,2.1,5.5-9.6,5.5-9.6l2.1,9.4   l3.8-6.8L438.6,449.5z"
   id="path4016" />
	<path
   class="st5"
   d="M484.9,457.8c0.8-1.7,1.4-5.5,1-22.9c-0.2-7.7-19.2,12.9-21.2,15c-0.9,0.9,11.1-1.8,11.1-1.8l2.4,6.3l2.7-6.2   L484.9,457.8z"
   id="path4018" />
	<path
   class="st8"
   d="M672.5,184.2c12.6-19.3,1.6-46.1-17.5-45.5c-20.1,0.6-31.3,32.4-17,19.6c8.5-7.6,16.9-6.4,18.6,3.4   c2,11.5-11.1,14.9-15.9,25.2l12.1-13.2l2.3,3.7l8.4-7.6l-0.1,9.9l7.2-10.9L672.5,184.2z"
   id="path4020" />
	<path
   class="st10"
   d="M424.2,478.7c-3.2-2,8.1,1.5,9.4,4c1.1,2,5.2,13.8,2.9,8.6C433.7,485.2,431.6,483.4,424.2,478.7z"
   id="path4022" />
</g>
<g
   id="Layer_3">
	<g
   id="g4025">
		<path
   class="st6"
   d="M167,348.2h-25.4v51.5h-25.3V279.3h8.4V331H167v-51.7h8.4v120.4H167V348.2z"
   id="path4027" />
		<path
   class="st6"
   d="M236.5,348.2h-25.4v51.5h-25.3V279.3H245v120.4h-8.4V348.2z M236.5,296.5h-42.3V331h42.3V296.5z"
   id="path4029" />
		<path
   class="st6"
   d="M280.6,382.5h33.9v17.2h-59.2V279.3h59.2v17.2h-50.8V331h16.9V382.5z"
   id="path4031" />
		<path
   class="st6"
   d="M375.5,348.2h-25.4v51.5h-25.3V279.3h8.4V331H358v-51.9h8.4V331h17.7v68.7h-8.5V348.2z"
   id="path4033" />
	</g>
	<polygon
   class="st0"
   points="454,399.3 439.8,399.3 439.7,301.6 403.6,301.5 403.5,399.3 390.8,399.3 390.8,273.9 454,273.9  "
   id="polygon4035" />
	<polygon
   class="st0"
   points="508.9,399.5 460.2,399.5 460.2,273.7 508.9,273.7 508.9,301.4 472.3,301.4 472.3,377.4 508.9,377.3     "
   id="polygon4037" />
</g>
<path
   style="fill:#ffe78c;fill-opacity:1;stroke-width:42.74599838;stroke-miterlimit:4;stroke-dasharray:none"
   d="m 422.07708,542.30214 c 0.43833,-0.73681 1.29911,-1.96345 1.91284,-2.72587 0.84411,-1.04859 1.11644,-1.18926 1.11818,-0.57758 0.001,0.44474 0.0815,0.80862 0.17822,0.80862 0.0968,0 1.90541,-1.77187 4.01921,-3.93748 2.56792,-2.63086 3.94581,-3.74254 4.15223,-3.35001 0.16993,0.32311 0.4268,2.0747 0.57083,3.89242 l 0.26188,3.30495 -2.46127,1.63418 c -2.17498,1.44411 -2.93163,1.67236 -6.50518,1.96231 l -4.04391,0.32812 0.79697,-1.33966 0,0 z"
   id="path4045"
   inkscape:connector-curvature="0" /></svg>