<?xml version="1.0" encoding="UTF-8" standalone="no"?>
<!-- Generator: Adobe Illustrator 16.0.4, SVG Export Plug-In . SVG Version: 6.00 Build 0)  -->

<svg
   xmlns:dc="http://purl.org/dc/elements/1.1/"
   xmlns:cc="http://creativecommons.org/ns#"
   xmlns:rdf="http://www.w3.org/1999/02/22-rdf-syntax-ns#"
   xmlns:svg="http://www.w3.org/2000/svg"
   xmlns="http://www.w3.org/2000/svg"
   xmlns:sodipodi="http://sodipodi.sourceforge.net/DTD/sodipodi-0.dtd"
   xmlns:inkscape="http://www.inkscape.org/namespaces/inkscape"
   version="1.1"
   id="Layer_1"
   x="0px"
   y="0px"
   width="1237.1875"
   height="1200"
   viewBox="0 0 1237.1875 1200"
   xml:space="preserve"
   inkscape:version="0.48.5 r10040"
   sodipodi:docname="workshop.svg"><metadata
   id="metadata17"><rdf:RDF><cc:Work
       rdf:about=""><dc:format>image/svg+xml</dc:format><dc:type
         rdf:resource="http://purl.org/dc/dcmitype/StillImage" /></cc:Work></rdf:RDF></metadata><defs
   id="defs15" /><sodipodi:namedview
   pagecolor="#ffffff"
   bordercolor="#666666"
   borderopacity="1"
   objecttolerance="10"
   gridtolerance="10"
   guidetolerance="10"
   inkscape:pageopacity="0"
   inkscape:pageshadow="2"
   inkscape:window-width="1600"
   inkscape:window-height="847"
   id="namedview13"
   showgrid="false"
   fit-margin-top="0"
   fit-margin-left="0"
   fit-margin-right="0"
   fit-margin-bottom="0"
   inkscape:zoom="0.38"
   inkscape:cx="605.31807"
   inkscape:cy="563"
   inkscape:window-x="-8"
   inkscape:window-y="-8"
   inkscape:window-maximized="1"
   inkscape:current-layer="Layer_1" />
<style
   type="text/css"
   id="style3">

	.st0{fill-rule:evenodd;clip-rule:evenodd;fill:none;}
	.st1{fill-rule:evenodd;clip-rule:evenodd;fill:#FFFFFF;}

</style>
<path
   style="fill:#ffffff"
   d="M 618.5938,0 C 276.95042,0 0,268.62915 0,600 c 0,331.3708 276.95042,600 618.5938,600 341.6433,0 618.5937,-268.6292 618.5937,-600 0,-331.37085 -276.9504,-600 -618.5937,-600 z m 83.2187,187.84375 c 8.5087,0.14314 15.6375,3.3125 20.5937,11.84375 7,44.5 13.6938,47.51875 51.5938,22.71875 5.3,-3.5 10.5,-7.00625 17,-7.40625 9,10.1 17.9062,20.30625 26.9062,30.40625 -1.0999,8.4 -5.7062,15.28125 -9.9062,22.28125 -15.2,25.3 -13.1062,30.725 15.5938,37.625 3,0.7 6.2125,0.7 9.3124,1 27.6,2.2 16.4813,23.68125 19.2813,38.28125 0.1,11.1 -4.9813,17.71875 -16.2813,19.21875 -2.5,0.3 -4.8124,1.275 -7.3124,1.875 -32.8,8.6 -35.1813,17.91875 -11.2813,43.71875 9.1,17.5 1.7,29.88125 -12,40.78125 -13.3,10.6 -23.3187,2.3 -34.2187,-4.5 -23,-14.5 -31.1,-10.7875 -38,16.3125 -2,7.9 -4.4813,15.69375 -6.7813,23.59375 -13.5,7.9 -28.2125,2.3125 -42.3125,3.8125 -6.7,-10.3 -8.1062,-22.4125 -11.4062,-33.8125 -4.2001,-14.6 -14.0875,-18.9 -27.1876,-11.5 -7.0999,4 -13.5999,9.19375 -20.5,13.59375 -4.7999,3.1 -10.0187,6.00625 -15.7187,1.90625 -13.3,-9.6 -28,-18.38125 -24,-38.78125 6.4,-2.8 8.325,-9.4 11.625,-14.5 11.7,-17.6 5.475,-30.4125 -15.625,-35.3125 -11.2,-2.6 -26.475,1.80625 -30.875,-15.09375 l 0,-19.09375 c 0.4,-20.2 17.6,-19.10625 30,-22.40625 13.1,-3.5 19.9938,-9.70625 19.5937,-23.40625 -8.0999,-13.7 -22.6124,-23.9 -22.8124,-42 2.4,-2.9 4.6937,-5.7875 7.0937,-8.6875 16.2,-18.8 21.3062,-19.81875 42.9063,-8.21875 3.2999,1.8 6.4187,4.0125 9.7187,5.8125 14.1,7.5 24.875,2.7 27.875,-12.5 1.7,-8.6 2.6062,-17.30625 3.9063,-25.90625 5.7,-11.8 16.2937,-11.8125 27.0937,-11.3125 2.1,-0.2625 4.1615,-0.37678 6.125,-0.34375 z M 702.5,299 c -23.8,0.4 -41.5938,19.1 -41.0938,43 0.4001,23.2 16,37.29375 41,37.09375 C 726.6063,378.89375 741.7,363.7 741.5,340 c -0.2,-22 -18.6,-41.4 -39,-41 z m -194.8125,80.375 c 8.9391,-0.13079 20.5656,8.09375 46.625,16.8125 10.5,3.5 12.2875,11.725 12.1875,21.125 -2,14.9 -3.4,29.8875 -6,44.6875 -3.5,20.1 10.3125,34.1875 30.3125,30.1875 11.1,-2.2 22.4938,-3.175 33.0937,-6.875 15.2001,-5.3 25.3813,-0.41875 33.7813,11.78125 5.2,14.1 10.4188,28.09375 15.7187,42.09375 0.2001,3.9 0.3,7.725 0.5,11.625 -8.2,18.4 -27.6062,23.38125 -41.9062,34.28125 -18.7,14.3 -19.0938,31.60625 0.4062,45.40625 4.1,2.9 8.4063,5.7125 12.4063,8.8125 35.9,27.2 35.6,27.1 16.5,68 -7.1,15.3 -15.2125,25.7875 -34.8125,19.1875 -10.6,-3.6 -22.4,-3.8875 -33.5,-6.1875 -23.1,-4.7 -38.0125,10.09375 -33.8125,33.59375 2.5,13.7 4.7,27.3875 6.5,41.1875 0.9,7 0.7,15.29375 -6.5,18.59375 -15.5,7.1 -31.3,13.60625 -47.5,18.90625 -7.6,2.5 -14.4875,-0.89375 -19.1875,-8.59375 -6.7,-10.8 -14.4875,-20.7875 -21.6875,-31.1875 -13.7,-19.7 -32.725,-20 -47.125,-0.5 -1.5,2 -3.1875,4 -4.6875,6 -32.3,44 -26.3,40.8 -78.5,20 -13.6,-5.4 -16.4875,-14.4 -14.1875,-27 2.4,-13.1 4.8875,-26.11875 7.1875,-39.21875 4.1,-22.9 -8.7875,-36.5875 -31.6875,-33.6875 -11.9,1.5 -24.125,2.4 -35.625,5.5 -14.4,3.8 -23.275,-0.5125 -28.875,-13.8125 -18.1,-43.3 -24.3,-40.28125 16.5,-68.78125 9.5,-6.6 23.3,-10.6 23,-27.5 -0.3,-13 -1.525,-23.4 -14.625,-30 -7.9,-3.9 -14.19375,-10.8125 -22.09375,-14.8125 -18,-9.1 -25.6,-21.7125 -17,-41.3125 10.3,-11.1 8.4125,-29.28125 22.3125,-38.28125 19.6,-1.4 38.70625,2.00625 57.90625,4.90625 17.3,2.7 30.4875,-7.9 29.6875,-25.5 -0.5,-12.4 -3,-24.8 -7.5,-36.5 -3.6,-18.7 3.99375,-32.01875 19.59375,-41.71875 5.1,-0.3 10.29375,0.10625 15.09375,-1.09375 29.7,-7.6 28.91875,-7.1875 49.21875,17.3125 10.4,12.6 15.48125,33.175 39.28125,29.875 8.9,-1.2 15.90625,-2.4875 19.90625,-11.1875 1.3,-2.8 3.70625,-5.1125 5.40625,-7.8125 17.68594,-28.56562 24.17164,-38.17327 33.6875,-38.3125 z m -61,163.8125 c -33.3,-0.4 -63.975,31 -63.375,65 0.5,33.4 30.1,62.40625 64,62.90625 34.3,0.5 64.8937,-29.28125 65.0937,-63.28125 0.2001,-35.4 -29.1187,-64.125 -65.7187,-64.625 z M 706.5938,718 c 16.7413,0.0162 19.1625,4.08125 25.0937,23.90625 9,30.3 15.0125,32.20625 41.3125,13.40625 19.3,-13.8 40.8938,-7.50625 50.5938,14.59375 2.5,5.6 0.012,9.90625 -2.1876,14.40625 -3.9,8 -8.2187,15.7875 -12.2187,23.6875 -5.7,11.5 -3.6938,19.7125 9.9063,22.8125 3.7,0.8 7.2937,2 11.0937,2.5 26.7,3.8 38.3125,23.3937 28.8125,49.0937 -3.1,8.3 -10.7875,9.9063 -18.1875,11.9063 -38.8,10.1 -39.225,10.8875 -17.625,44.6875 4.7,7.3 8.5,14.2062 4.5,22.9062 -3.7,7.3 -22.9875,23.3 -31.1875,23.5 -6.7,-3.7999 -15.4875,-8.6937 -24.1875,-13.5937 -16.3,-9.4 -26.0125,-5.4063 -30.8125,12.5937 -1,3.7001 -2.4875,7.2938 -2.6875,11.0938 -0.6,16.9 -7.7,24.4062 -26,24.9062 -18.7,0.5 -27.8,-5.7062 -32,-23.9062 -7.4,-32.3 -11.825,-33.4875 -40.125,-15.1875 -19,12.3 -43.5812,4.1938 -50.2813,-16.9063 -3.0999,-9.7999 4.3813,-16.7937 8.7813,-24.0937 15.5,-25.9 12.7062,-33.4 -16.0937,-40 -23.9001,-5.5 -29.0063,-12.2 -26.9063,-36.5 0.7,-7.4 4.1187,-13.125 12.2187,-15.125 8.6,-2.2 17.3,-4.19375 25.5,-7.59375 12.7001,-5.4 16.9938,-14.40625 8.5938,-26.90625 -2.8,-4.2 -5.4062,-8.78125 -8.9062,-12.28125 -15.8,-16.1 -5,-28.2125 5.5,-40.8125 10.2999,-12.5 21.0187,-8.18125 32.2187,-1.78125 4.4,2.5 9.275,4.2875 13.375,7.1875 13.6,9.4 21.0187,2.4875 26.2187,-9.8125 1.4001,-3.4 1.1938,-7.49375 2.0938,-11.09375 2.8,-11.7 0.5,-26.09375 19.5,-27.09375 5.6063,-0.28125 10.2304,-0.50374 14.0938,-0.5 z M 707,826.8125 c -21.3,0.5 -38.3062,18.6813 -38.4062,41.2813 -0.2001,23.2 15.7062,40.4 37.9062,41 22.9,0.5999 42.6,-18.8063 42.5,-41.9063 -0.1,-21 -20.7,-40.775 -42,-40.375 z"
   id="ellipse5"
   inkscape:connector-curvature="0" />



</svg>