<?xml version="1.0" encoding="utf-8"?>
<!-- Generator: Adobe Illustrator 16.0.4, SVG Export Plug-In . SVG Version: 6.00 Build 0)  -->
<!DOCTYPE svg PUBLIC "-//W3C//DTD SVG 1.1//EN" "http://www.w3.org/Graphics/SVG/1.1/DTD/svg11.dtd">
<svg version="1.1" id="Layer_1" xmlns="http://www.w3.org/2000/svg" xmlns:xlink="http://www.w3.org/1999/xlink" x="0px" y="0px"
	 width="2016px" height="1584px" viewBox="0 0 2016 1584" style="enable-background:new 0 0 2016 1584;" xml:space="preserve">
<style type="text/css">
<![CDATA[
	.st0{fill-rule:evenodd;clip-rule:evenodd;fill:none;}
	.st1{fill-rule:evenodd;clip-rule:evenodd;fill:#FFFFFF;}
]]>
</style>
<ellipse class="st1" cx="1115.6" cy="755" rx="618.6" ry="600"/>
<path class="st0" d="M1172.4,694.2c0.2,3.9,0.3,7.7,0.5,11.6c-8.2,18.4-27.6,23.4-41.9,34.3c-18.7,14.3-19.1,31.6,0.4,45.4
	c4.1,2.9,8.4,5.7,12.4,8.8c35.9,27.2,35.6,27.1,16.5,68c-7.1,15.3-15.2,25.8-34.8,19.2c-10.6-3.6-22.4-3.9-33.5-6.2
	c-23.1-4.7-38,10.1-33.8,33.6c2.5,13.7,4.7,27.4,6.5,41.2c0.9,7,0.7,15.3-6.5,18.6c-15.5,7.1-31.3,13.6-47.5,18.9
	c-7.6,2.5-14.5-0.9-19.2-8.6c-6.7-10.8-14.5-20.8-21.7-31.2c-13.7-19.7-32.7-20-47.1-0.5c-1.5,2-3.2,4-4.7,6
	c-32.3,44-26.3,40.8-78.5,20c-13.6-5.4-16.5-14.4-14.2-27c2.4-13.1,4.9-26.1,7.2-39.2c4.1-22.9-8.8-36.6-31.7-33.7
	c-11.9,1.5-24.1,2.4-35.6,5.5c-14.4,3.8-23.3-0.5-28.9-13.8c-18.1-43.3-24.3-40.3,16.5-68.8c9.5-6.6,23.3-10.6,23-27.5
	c-0.3-13-1.5-23.4-14.6-30c-7.9-3.9-14.2-10.8-22.1-14.8c-18-9.1-25.6-21.7-17-41.3c10.3-11.1,8.4-29.3,22.3-38.3
	c19.6-1.4,38.7,2,57.9,4.9c17.3,2.7,30.5-7.9,29.7-25.5c-0.5-12.4-3-24.8-7.5-36.5c-3.6-18.7,4-32,19.6-41.7
	c5.1-0.3,10.3,0.1,15.1-1.1c29.7-7.6,28.9-7.2,49.2,17.3c10.4,12.6,15.5,33.2,39.3,29.9c8.9-1.2,15.9-2.5,19.9-11.2
	c1.3-2.8,3.7-5.1,5.4-7.8c34.3-55.4,26.5-39.5,80.3-21.5c10.5,3.5,12.3,11.7,12.2,21.1c-2,14.9-3.4,29.9-6,44.7
	c-3.5,20.1,10.3,34.2,30.3,30.2c11.1-2.2,22.5-3.2,33.1-6.9c15.2-5.3,25.4-0.4,33.8,11.8C1161.9,666.2,1167.1,680.2,1172.4,694.2z
	 M1011.4,762.8c0.2-35.4-29.1-64.1-65.7-64.6c-33.3-0.4-64,31-63.4,65c0.5,33.4,30.1,62.4,64,62.9
	C980.6,826.6,1011.2,796.8,1011.4,762.8z"/>
<path class="st0" d="M1295.5,1140.4c-6.7-3.8-15.5-8.7-24.2-13.6c-16.3-9.4-26-5.4-30.8,12.6c-1,3.7-2.5,7.3-2.7,11.1
	c-0.6,16.9-7.7,24.4-26,24.9c-18.7,0.5-27.8-5.7-32-23.9c-7.4-32.3-11.8-33.5-40.1-15.2c-19,12.3-43.6,4.2-50.3-16.9
	c-3.1-9.8,4.4-16.8,8.8-24.1c15.5-25.9,12.7-33.4-16.1-40c-23.9-5.5-29-12.2-26.9-36.5c0.7-7.4,4.1-13.1,12.2-15.1
	c8.6-2.2,17.3-4.2,25.5-7.6c12.7-5.4,17-14.4,8.6-26.9c-2.8-4.2-5.4-8.8-8.9-12.3c-15.8-16.1-5-28.2,5.5-40.8
	c10.3-12.5,21-8.2,32.2-1.8c4.4,2.5,9.3,4.3,13.4,7.2c13.6,9.4,21,2.5,26.2-9.8c1.4-3.4,1.2-7.5,2.1-11.1
	c2.8-11.7,0.5-26.1,19.5-27.1c29.9-1.5,31.9-1,39.2,23.4c9,30.3,15,32.2,41.3,13.4c19.3-13.8,40.9-7.5,50.6,14.6
	c2.5,5.6,0,9.9-2.2,14.4c-3.9,8-8.2,15.8-12.2,23.7c-5.7,11.5-3.7,19.7,9.9,22.8c3.7,0.8,7.3,2,11.1,2.5
	c26.7,3.8,38.3,23.4,28.8,49.1c-3.1,8.3-10.8,9.9-18.2,11.9c-38.8,10.1-39.2,10.9-17.6,44.7c4.7,7.3,8.5,14.2,4.5,22.9
	C1323,1124.2,1303.7,1140.2,1295.5,1140.4z M1167.6,1023.1c-0.2,23.2,15.7,40.4,37.9,41c22.9,0.6,42.6-18.8,42.5-41.9
	c-0.1-21-20.7-40.8-42-40.4C1184.7,982.3,1167.7,1000.5,1167.6,1023.1z"/>
<path class="st0" d="M1194.7,343.2c11.2-1.4,20.6,1,26.7,11.5c7,44.5,13.7,47.5,51.6,22.7c5.3-3.5,10.5-7,17-7.4
	c9,10.1,17.9,20.3,26.9,30.4c-1.1,8.4-5.7,15.3-9.9,22.3c-15.2,25.3-13.1,30.7,15.6,37.6c3,0.7,6.2,0.7,9.3,1
	c27.6,2.2,16.5,23.7,19.3,38.3c0.1,11.1-5,17.7-16.3,19.2c-2.5,0.3-4.8,1.3-7.3,1.9c-32.8,8.6-35.2,17.9-11.3,43.7
	c9.1,17.5,1.7,29.9-12,40.8c-13.3,10.6-23.3,2.3-34.2-4.5c-23-14.5-31.1-10.8-38,16.3c-2,7.9-4.5,15.7-6.8,23.6
	c-13.5,7.9-28.2,2.3-42.3,3.8c-6.7-10.3-8.1-22.4-11.4-33.8c-4.2-14.6-14.1-18.9-27.2-11.5c-7.1,4-13.6,9.2-20.5,13.6
	c-4.8,3.1-10,6-15.7,1.9c-13.3-9.6-28-18.4-24-38.8c6.4-2.8,8.3-9.4,11.6-14.5c11.7-17.6,5.5-30.4-15.6-35.3
	c-11.2-2.6-26.5,1.8-30.9-15.1c0-6.4,0-12.7,0-19.1c0.4-20.2,17.6-19.1,30-22.4c13.1-3.5,20-9.7,19.6-23.4
	c-8.1-13.7-22.6-23.9-22.8-42c2.4-2.9,4.7-5.8,7.1-8.7c16.2-18.8,21.3-19.8,42.9-8.2c3.3,1.8,6.4,4,9.7,5.8
	c14.1,7.5,24.9,2.7,27.9-12.5c1.7-8.6,2.6-17.3,3.9-25.9C1173.3,342.7,1183.9,342.7,1194.7,343.2z M1201.4,534.1
	c24.2-0.2,39.3-15.4,39.1-39.1c-0.2-22-18.6-41.4-39-41c-23.8,0.4-41.6,19.1-41.1,43C1160.8,520.2,1176.4,534.3,1201.4,534.1z"/>
</svg>
